<?xml version="1.0" encoding="utf-8"?>
<!-- Generator: Adobe Illustrator 27.5.0, SVG Export Plug-In . SVG Version: 6.00 Build 0)  -->
<svg version="1.1" xmlns="http://www.w3.org/2000/svg" xmlns:xlink="http://www.w3.org/1999/xlink" x="0px" y="0px"
	 viewBox="0 0 500 500" style="enable-background:new 0 0 500 500;" xml:space="preserve">
<g id="Background_Complete">
	<g>
		<g>
			<g>
				<g>
					<g>
						<g>
							<rect x="226.882" y="124.176" style="fill:#EBEBEB;" width="74.009" height="193.716"/>
						</g>
					</g>
					<g>
						<g>
							<rect x="263.886" y="124.176" style="fill:#E0E0E0;" width="37.004" height="193.716"/>
						</g>
					</g>
					<g>
						<g>
							<rect x="235.333" y="101.149" style="fill:#EBEBEB;" width="26.134" height="23.027"/>
						</g>
					</g>
					<g>
						<g>
							<rect x="255.238" y="101.149" style="fill:#E0E0E0;" width="6.229" height="23.027"/>
						</g>
					</g>
					<g>
						<g>
							<rect x="220.714" y="122.833" style="fill:#E0E0E0;" width="82.343" height="1.343"/>
						</g>
					</g>
					<g>
						<g>
							<rect x="241.491" y="134.219" style="fill:#FFFFFF;" width="6.265" height="13.209"/>
						</g>
					</g>
					<g>
						<g>
							<g>
								<path style="fill:#E0E0E0;" d="M263.886,152.613c0,0.14-8.285,0.252-18.501,0.252c-10.22,0-18.503-0.113-18.503-0.252
									c0-0.139,8.283-0.252,18.503-0.252C255.602,152.361,263.886,152.473,263.886,152.613z"/>
							</g>
						</g>
					</g>
					<g>
						<g>
							<g>
								<rect x="278.817" y="134.219" style="fill:#F5F5F5;" width="6.265" height="13.209"/>
							</g>
						</g>
						<g>
							<g>
								<g>
									<path style="fill:#EBEBEB;" d="M301.213,152.613c0,0.14-8.284,0.252-18.501,0.252c-10.221,0-18.503-0.113-18.503-0.252
										c0-0.139,8.283-0.252,18.503-0.252C292.928,152.361,301.213,152.473,301.213,152.613z"/>
								</g>
							</g>
						</g>
					</g>
					<g>
						<g>
							<g>
								<rect x="278.817" y="160.445" style="fill:#F5F5F5;" width="6.265" height="13.209"/>
							</g>
						</g>
						<g>
							<g>
								<g>
									<path style="fill:#EBEBEB;" d="M301.213,178.838c0,0.139-8.284,0.252-18.501,0.252c-10.221,0-18.503-0.113-18.503-0.252
										c0-0.139,8.283-0.252,18.503-0.252C292.928,178.586,301.213,178.699,301.213,178.838z"/>
								</g>
							</g>
						</g>
					</g>
					<g>
						<g>
							<g>
								<rect x="278.817" y="187.462" style="fill:#F5F5F5;" width="6.265" height="13.21"/>
							</g>
						</g>
						<g>
							<g>
								<g>
									<path style="fill:#EBEBEB;" d="M301.213,205.855c0,0.139-8.284,0.252-18.501,0.252c-10.221,0-18.503-0.113-18.503-0.252
										c0-0.139,8.283-0.252,18.503-0.252C292.928,205.603,301.213,205.716,301.213,205.855z"/>
								</g>
							</g>
						</g>
					</g>
					<g>
						<g>
							<g>
								<rect x="278.817" y="214.479" style="fill:#F5F5F5;" width="6.265" height="13.209"/>
							</g>
						</g>
						<g>
							<g>
								<g>
									<path style="fill:#EBEBEB;" d="M301.213,232.873c0,0.139-8.284,0.252-18.501,0.252c-10.221,0-18.503-0.113-18.503-0.252
										c0-0.139,8.283-0.253,18.503-0.253C292.928,232.62,301.213,232.733,301.213,232.873z"/>
								</g>
							</g>
						</g>
					</g>
					<g>
						<g>
							<g>
								<rect x="278.817" y="240.723" style="fill:#F5F5F5;" width="6.265" height="13.209"/>
							</g>
						</g>
						<g>
							<g>
								<g>
									<path style="fill:#EBEBEB;" d="M301.213,259.117c0,0.139-8.284,0.252-18.501,0.252c-10.221,0-18.503-0.113-18.503-0.252
										c0-0.139,8.283-0.252,18.503-0.252C292.928,258.865,301.213,258.978,301.213,259.117z"/>
								</g>
							</g>
						</g>
					</g>
					<g>
						<g>
							<g>
								<rect x="278.817" y="267.073" style="fill:#F5F5F5;" width="6.265" height="13.209"/>
							</g>
						</g>
						<g>
							<g>
								<rect x="278.817" y="293.769" style="fill:#F5F5F5;" width="6.265" height="13.209"/>
							</g>
						</g>
						<g>
							<g>
								<g>
									<path style="fill:#EBEBEB;" d="M301.213,285.467c0,0.139-8.284,0.252-18.501,0.252c-10.221,0-18.503-0.113-18.503-0.252
										c0-0.139,8.283-0.252,18.503-0.252C292.928,285.215,301.213,285.328,301.213,285.467z"/>
								</g>
							</g>
						</g>
					</g>
					<g>
						<g>
							<rect x="241.491" y="160.845" style="fill:#FFFFFF;" width="6.265" height="13.209"/>
						</g>
					</g>
					<g>
						<g>
							<g>
								<path style="fill:#E0E0E0;" d="M263.886,179.238c0,0.139-8.285,0.252-18.501,0.252c-10.22,0-18.503-0.113-18.503-0.252
									c0-0.139,8.283-0.252,18.503-0.252C255.602,178.986,263.886,179.099,263.886,179.238z"/>
							</g>
						</g>
					</g>
					<g>
						<g>
							<rect x="241.491" y="187.471" style="fill:#FFFFFF;" width="6.265" height="13.209"/>
						</g>
					</g>
					<g>
						<g>
							<g>
								<path style="fill:#E0E0E0;" d="M263.886,205.865c0,0.14-8.285,0.252-18.501,0.252c-10.22,0-18.503-0.113-18.503-0.252
									c0-0.139,8.283-0.252,18.503-0.252C255.602,205.613,263.886,205.725,263.886,205.865z"/>
							</g>
						</g>
					</g>
					<g>
						<g>
							<rect x="241.491" y="214.097" style="fill:#FFFFFF;" width="6.265" height="13.209"/>
						</g>
					</g>
					<g>
						<g>
							<g>
								<path style="fill:#E0E0E0;" d="M263.886,232.491c0,0.139-8.285,0.252-18.501,0.252c-10.22,0-18.503-0.113-18.503-0.252
									c0-0.139,8.283-0.252,18.503-0.252C255.602,232.239,263.886,232.351,263.886,232.491z"/>
							</g>
						</g>
					</g>
					<g>
						<g>
							<rect x="241.491" y="240.723" style="fill:#FFFFFF;" width="6.265" height="13.209"/>
						</g>
					</g>
					<g>
						<g>
							<g>
								<path style="fill:#E0E0E0;" d="M263.886,259.117c0,0.139-8.285,0.252-18.501,0.252c-10.22,0-18.503-0.113-18.503-0.252
									c0-0.139,8.283-0.252,18.503-0.252C255.602,258.865,263.886,258.978,263.886,259.117z"/>
							</g>
						</g>
					</g>
					<g>
						<g>
							<rect x="241.491" y="267.349" style="fill:#FFFFFF;" width="6.265" height="13.209"/>
						</g>
					</g>
					<g>
						<g>
							<g>
								<path style="fill:#E0E0E0;" d="M263.886,285.743c0,0.139-8.285,0.252-18.501,0.252c-10.22,0-18.503-0.113-18.503-0.252
									c0-0.139,8.283-0.252,18.503-0.252C255.602,285.491,263.886,285.604,263.886,285.743z"/>
							</g>
						</g>
					</g>
					<g>
						<g>
							<g>
								<rect x="241.491" y="293.975" style="fill:#FFFFFF;" width="6.265" height="13.21"/>
							</g>
						</g>
					</g>
				</g>
			</g>
			<g>
				<g>
					<g>
						<g>
							<rect x="68.332" y="103.142" style="fill:#EBEBEB;" width="74.009" height="213.432"/>
						</g>
					</g>
					<g>
						<g>
							<rect x="105.336" y="103.142" style="fill:#E0E0E0;" width="37.004" height="213.432"/>
						</g>
					</g>
					<g>
						<g>
							<rect x="76.783" y="77.771" style="fill:#EBEBEB;" width="26.134" height="25.37"/>
						</g>
					</g>
					<g>
						<g>
							<rect x="96.688" y="77.771" style="fill:#E0E0E0;" width="6.229" height="25.37"/>
						</g>
					</g>
					<g>
						<g>
							<rect x="62.164" y="101.662" style="fill:#E0E0E0;" width="82.343" height="1.48"/>
						</g>
					</g>
					<g>
						<g>
							<rect x="82.94" y="114.207" style="fill:#FFFFFF;" width="6.265" height="14.554"/>
						</g>
					</g>
					<g>
						<g>
							<g>
								<path style="fill:#E0E0E0;" d="M105.336,134.472c0,0.154-8.285,0.278-18.501,0.278c-10.22,0-18.503-0.124-18.503-0.278
									c0-0.154,8.283-0.278,18.503-0.278C97.052,134.195,105.336,134.319,105.336,134.472z"/>
							</g>
						</g>
					</g>
					<g>
						<g>
							<g>
								<rect x="120.267" y="114.207" style="fill:#F5F5F5;" width="6.265" height="14.554"/>
							</g>
						</g>
						<g>
							<g>
								<g>
									<path style="fill:#EBEBEB;" d="M142.663,134.472c0,0.154-8.285,0.278-18.501,0.278c-10.221,0-18.503-0.124-18.503-0.278
										c0-0.154,8.283-0.278,18.503-0.278C134.378,134.195,142.663,134.319,142.663,134.472z"/>
								</g>
							</g>
						</g>
					</g>
					<g>
						<g>
							<g>
								<rect x="120.267" y="143.102" style="fill:#F5F5F5;" width="6.265" height="14.554"/>
							</g>
						</g>
						<g>
							<g>
								<g>
									<path style="fill:#EBEBEB;" d="M142.663,163.367c0,0.154-8.285,0.278-18.501,0.278c-10.221,0-18.503-0.124-18.503-0.278
										c0-0.153,8.283-0.278,18.503-0.278C134.378,163.089,142.663,163.214,142.663,163.367z"/>
								</g>
							</g>
						</g>
					</g>
					<g>
						<g>
							<g>
								<rect x="120.267" y="172.868" style="fill:#F5F5F5;" width="6.265" height="14.554"/>
							</g>
						</g>
						<g>
							<g>
								<g>
									<path style="fill:#EBEBEB;" d="M142.663,193.134c0,0.153-8.285,0.278-18.501,0.278c-10.221,0-18.503-0.124-18.503-0.278
										c0-0.153,8.283-0.278,18.503-0.278C134.378,192.856,142.663,192.981,142.663,193.134z"/>
								</g>
							</g>
						</g>
					</g>
					<g>
						<g>
							<g>
								<rect x="120.267" y="202.635" style="fill:#F5F5F5;" width="6.265" height="14.554"/>
							</g>
						</g>
						<g>
							<g>
								<g>
									<path style="fill:#EBEBEB;" d="M142.663,222.901c0,0.153-8.285,0.278-18.501,0.278c-10.221,0-18.503-0.124-18.503-0.278
										c0-0.153,8.283-0.278,18.503-0.278C134.378,222.623,142.663,222.748,142.663,222.901z"/>
								</g>
							</g>
						</g>
					</g>
					<g>
						<g>
							<g>
								<rect x="120.267" y="231.551" style="fill:#F5F5F5;" width="6.265" height="14.554"/>
							</g>
						</g>
						<g>
							<g>
								<g>
									<path style="fill:#EBEBEB;" d="M142.663,251.816c0,0.153-8.285,0.278-18.501,0.278c-10.221,0-18.503-0.124-18.503-0.278
										c0-0.153,8.283-0.278,18.503-0.278C134.378,251.538,142.663,251.663,142.663,251.816z"/>
								</g>
							</g>
						</g>
					</g>
					<g>
						<g>
							<g>
								<rect x="120.267" y="260.583" style="fill:#F5F5F5;" width="6.265" height="14.554"/>
							</g>
						</g>
						<g>
							<g>
								<rect x="120.267" y="289.995" style="fill:#F5F5F5;" width="6.265" height="14.554"/>
							</g>
						</g>
						<g>
							<g>
								<g>
									<path style="fill:#EBEBEB;" d="M142.663,280.849c0,0.153-8.285,0.278-18.501,0.278c-10.221,0-18.503-0.125-18.503-0.278
										c0-0.153,8.283-0.278,18.503-0.278C134.378,280.571,142.663,280.695,142.663,280.849z"/>
								</g>
							</g>
						</g>
					</g>
					<g>
						<g>
							<rect x="82.94" y="143.543" style="fill:#FFFFFF;" width="6.265" height="14.554"/>
						</g>
					</g>
					<g>
						<g>
							<g>
								<path style="fill:#E0E0E0;" d="M105.336,163.808c0,0.154-8.285,0.278-18.501,0.278c-10.22,0-18.503-0.124-18.503-0.278
									c0-0.153,8.283-0.278,18.503-0.278C97.052,163.53,105.336,163.655,105.336,163.808z"/>
							</g>
						</g>
					</g>
					<g>
						<g>
							<rect x="82.94" y="172.879" style="fill:#FFFFFF;" width="6.265" height="14.554"/>
						</g>
					</g>
					<g>
						<g>
							<g>
								<path style="fill:#E0E0E0;" d="M105.336,193.144c0,0.154-8.285,0.278-18.501,0.278c-10.22,0-18.503-0.124-18.503-0.278
									c0-0.153,8.283-0.278,18.503-0.278C97.052,192.867,105.336,192.991,105.336,193.144z"/>
							</g>
						</g>
					</g>
					<g>
						<g>
							<rect x="82.94" y="202.215" style="fill:#FFFFFF;" width="6.265" height="14.554"/>
						</g>
					</g>
					<g>
						<g>
							<g>
								<path style="fill:#E0E0E0;" d="M105.336,222.48c0,0.154-8.285,0.278-18.501,0.278c-10.22,0-18.503-0.124-18.503-0.278
									c0-0.154,8.283-0.278,18.503-0.278C97.052,222.203,105.336,222.327,105.336,222.48z"/>
							</g>
						</g>
					</g>
					<g>
						<g>
							<rect x="82.94" y="231.551" style="fill:#FFFFFF;" width="6.265" height="14.554"/>
						</g>
					</g>
					<g>
						<g>
							<g>
								<path style="fill:#E0E0E0;" d="M105.336,251.816c0,0.153-8.285,0.278-18.501,0.278c-10.22,0-18.503-0.124-18.503-0.278
									c0-0.153,8.283-0.278,18.503-0.278C97.052,251.538,105.336,251.663,105.336,251.816z"/>
							</g>
						</g>
					</g>
					<g>
						<g>
							<rect x="82.94" y="260.887" style="fill:#FFFFFF;" width="6.265" height="14.554"/>
						</g>
					</g>
					<g>
						<g>
							<g>
								<path style="fill:#E0E0E0;" d="M105.336,281.152c0,0.153-8.285,0.278-18.501,0.278c-10.22,0-18.503-0.124-18.503-0.278
									c0-0.153,8.283-0.278,18.503-0.278C97.052,280.875,105.336,280.999,105.336,281.152z"/>
							</g>
						</g>
					</g>
					<g>
						<g>
							<g>
								<rect x="82.94" y="290.223" style="fill:#FFFFFF;" width="6.265" height="14.554"/>
							</g>
						</g>
					</g>
				</g>
			</g>
			<g>
				<g>
					<g>
						<g>
							<rect x="158.467" y="173.572" style="fill:#E0E0E0;" width="76.044" height="144.32"/>
						</g>
					</g>
					<g>
						<g>
							<rect x="198.855" y="173.572" style="fill:#EBEBEB;" width="35.655" height="144.32"/>
						</g>
					</g>
				</g>
				<g>
					<g>
						<g>
							<rect x="174.411" y="187.151" style="fill:#F5F5F5;" width="6.837" height="16.612"/>
						</g>
					</g>
					<g>
						<g>
							<rect x="174.411" y="252.166" style="fill:#F5F5F5;" width="6.837" height="16.612"/>
						</g>
					</g>
					<g>
						<g>
							<g>
								<path style="fill:#F5F5F5;" d="M198.855,210.283c0,0.143-9.042,0.259-20.193,0.259c-11.155,0-20.195-0.116-20.195-0.259
									c0-0.143,9.04-0.259,20.195-0.259C189.813,210.024,198.855,210.14,198.855,210.283z"/>
							</g>
						</g>
					</g>
				</g>
				<g>
					<g>
						<g>
							<rect x="174.411" y="219.905" style="fill:#F5F5F5;" width="6.837" height="16.612"/>
						</g>
					</g>
					<g>
						<g>
							<g>
								<path style="fill:#F5F5F5;" d="M198.855,243.036c0,0.143-9.042,0.259-20.193,0.259c-11.155,0-20.195-0.116-20.195-0.259
									c0-0.143,9.04-0.259,20.195-0.259C189.813,242.777,198.855,242.893,198.855,243.036z"/>
							</g>
						</g>
					</g>
				</g>
				<g>
					<g>
						<rect x="206.427" y="187.151" style="fill:#E0E0E0;" width="6.837" height="16.612"/>
					</g>
				</g>
				<g>
					<g>
						<rect x="221.26" y="187.151" style="fill:#E0E0E0;" width="6.837" height="16.612"/>
					</g>
				</g>
				<g>
					<g>
						<rect x="206.427" y="218.673" style="fill:#E0E0E0;" width="6.837" height="16.611"/>
					</g>
				</g>
				<g>
					<g>
						<rect x="221.26" y="218.673" style="fill:#E0E0E0;" width="6.837" height="16.611"/>
					</g>
				</g>
				<g>
					<g>
						<rect x="206.427" y="250.194" style="fill:#E0E0E0;" width="6.837" height="16.612"/>
					</g>
				</g>
				<g>
					<g>
						<rect x="221.26" y="250.194" style="fill:#E0E0E0;" width="6.837" height="16.612"/>
					</g>
				</g>
				<g>
					<g>
						<rect x="152.75" y="170.081" style="fill:#E0E0E0;" width="87.477" height="3.617"/>
					</g>
				</g>
				<g>
					<g>
						<g>
							<path style="fill:#EBEBEB;" d="M235.041,174.038c0,0.143-16.996,0.259-37.958,0.259c-20.969,0-37.961-0.116-37.961-0.259
								c0-0.143,16.993-0.259,37.961-0.259C218.045,173.779,235.041,173.895,235.041,174.038z"/>
						</g>
					</g>
				</g>
			</g>
			<g>
				<g>
					<g>
						<rect x="409.506" y="122.342" style="fill:#F5F5F5;" width="61.709" height="195.571"/>
					</g>
				</g>
				<g>
					<g>
						<rect x="440.361" y="122.342" style="fill:#EBEBEB;" width="30.855" height="195.033"/>
					</g>
				</g>
				<g>
					<g>
						<rect x="416.552" y="103.142" style="fill:#F5F5F5;" width="21.791" height="19.2"/>
					</g>
				</g>
				<g>
					<g>
						<rect x="433.149" y="103.142" style="fill:#EBEBEB;" width="5.194" height="19.2"/>
					</g>
				</g>
				<g>
					<g>
						<polyline style="fill:#E0E0E0;" points="404.363,122.342 404.363,121.222 473.021,121.222 473.021,122.342 						"/>
					</g>
				</g>
				<g>
					<g>
						<rect x="421.687" y="130.715" style="fill:#FAFAFA;" width="5.223" height="11.014"/>
					</g>
				</g>
				<g>
					<g>
						<g>
							<path style="fill:#E0E0E0;" d="M440.361,146.052c0,0.116-6.908,0.21-15.427,0.21c-8.522,0-15.428-0.094-15.428-0.21
								s6.906-0.21,15.428-0.21C433.453,145.842,440.361,145.936,440.361,146.052z"/>
						</g>
					</g>
				</g>
				<g>
					<g>
						<g>
							<rect x="452.81" y="130.715" style="fill:#E0E0E0;" width="5.223" height="11.014"/>
						</g>
					</g>
					<g>
						<g>
							<g>
								<path style="fill:#E0E0E0;" d="M471.484,146.052c0,0.116-6.908,0.21-15.427,0.21c-8.522,0-15.428-0.094-15.428-0.21
									s6.906-0.21,15.428-0.21C464.576,145.842,471.484,145.936,471.484,146.052z"/>
							</g>
						</g>
					</g>
				</g>
				<g>
					<g>
						<g>
							<rect x="452.81" y="152.583" style="fill:#E0E0E0;" width="5.223" height="11.014"/>
						</g>
					</g>
					<g>
						<g>
							<g>
								<path style="fill:#E0E0E0;" d="M471.484,167.92c0,0.116-6.908,0.21-15.427,0.21c-8.522,0-15.428-0.094-15.428-0.21
									c0-0.116,6.906-0.21,15.428-0.21C464.576,167.709,471.484,167.804,471.484,167.92z"/>
							</g>
						</g>
					</g>
				</g>
				<g>
					<g>
						<g>
							<rect x="452.81" y="175.11" style="fill:#E0E0E0;" width="5.223" height="11.014"/>
						</g>
					</g>
					<g>
						<g>
							<g>
								<path style="fill:#E0E0E0;" d="M471.484,190.447c0,0.116-6.908,0.21-15.427,0.21c-8.522,0-15.428-0.094-15.428-0.21
									c0-0.116,6.906-0.21,15.428-0.21C464.576,190.236,471.484,190.331,471.484,190.447z"/>
							</g>
						</g>
					</g>
				</g>
				<g>
					<g>
						<g>
							<rect x="452.81" y="197.637" style="fill:#E0E0E0;" width="5.223" height="11.014"/>
						</g>
					</g>
					<g>
						<g>
							<g>
								<path style="fill:#E0E0E0;" d="M471.484,212.974c0,0.116-6.908,0.21-15.427,0.21c-8.522,0-15.428-0.094-15.428-0.21
									c0-0.116,6.906-0.21,15.428-0.21C464.576,212.764,471.484,212.858,471.484,212.974z"/>
							</g>
						</g>
					</g>
				</g>
				<g>
					<g>
						<g>
							<rect x="452.81" y="219.52" style="fill:#E0E0E0;" width="5.223" height="11.014"/>
						</g>
					</g>
					<g>
						<g>
							<g>
								<path style="fill:#E0E0E0;" d="M471.484,234.857c0,0.116-6.908,0.21-15.427,0.21c-8.522,0-15.428-0.094-15.428-0.21
									c0-0.116,6.906-0.21,15.428-0.21C464.576,234.646,471.484,234.741,471.484,234.857z"/>
							</g>
						</g>
					</g>
				</g>
				<g>
					<g>
						<g>
							<rect x="452.81" y="241.491" style="fill:#E0E0E0;" width="5.223" height="11.014"/>
						</g>
					</g>
					<g>
						<g>
							<rect x="452.81" y="263.75" style="fill:#E0E0E0;" width="5.223" height="11.014"/>
						</g>
					</g>
					<g>
						<g>
							<g>
								<path style="fill:#E0E0E0;" d="M471.484,256.828c0,0.116-6.908,0.21-15.427,0.21c-8.522,0-15.428-0.094-15.428-0.21
									c0-0.116,6.906-0.21,15.428-0.21C464.576,256.618,471.484,256.712,471.484,256.828z"/>
							</g>
						</g>
					</g>
				</g>
				<g>
					<g>
						<rect x="421.687" y="152.917" style="fill:#FAFAFA;" width="5.223" height="11.014"/>
					</g>
				</g>
				<g>
					<g>
						<g>
							<path style="fill:#E0E0E0;" d="M440.361,168.253c0,0.116-6.908,0.21-15.427,0.21c-8.522,0-15.428-0.094-15.428-0.21
								c0-0.116,6.906-0.21,15.428-0.21C433.453,168.043,440.361,168.137,440.361,168.253z"/>
						</g>
					</g>
				</g>
				<g>
					<g>
						<rect x="421.687" y="175.117" style="fill:#FAFAFA;" width="5.223" height="11.014"/>
					</g>
				</g>
				<g>
					<g>
						<g>
							<path style="fill:#E0E0E0;" d="M440.361,190.454c0,0.116-6.908,0.21-15.427,0.21c-8.522,0-15.428-0.094-15.428-0.21
								c0-0.116,6.906-0.21,15.428-0.21C433.453,190.244,440.361,190.338,440.361,190.454z"/>
						</g>
					</g>
				</g>
				<g>
					<g>
						<rect x="421.687" y="197.319" style="fill:#FAFAFA;" width="5.223" height="11.014"/>
					</g>
				</g>
				<g>
					<g>
						<g>
							<path style="fill:#E0E0E0;" d="M440.361,212.656c0,0.116-6.908,0.21-15.427,0.21c-8.522,0-15.428-0.094-15.428-0.21
								c0-0.116,6.906-0.21,15.428-0.21C433.453,212.445,440.361,212.54,440.361,212.656z"/>
						</g>
					</g>
				</g>
				<g>
					<g>
						<rect x="421.687" y="219.52" style="fill:#FAFAFA;" width="5.223" height="11.014"/>
					</g>
				</g>
				<g>
					<g>
						<g>
							<path style="fill:#E0E0E0;" d="M440.361,234.857c0,0.116-6.908,0.21-15.427,0.21c-8.522,0-15.428-0.094-15.428-0.21
								c0-0.116,6.906-0.21,15.428-0.21C433.453,234.646,440.361,234.741,440.361,234.857z"/>
						</g>
					</g>
				</g>
				<g>
					<g>
						<rect x="421.687" y="241.721" style="fill:#FAFAFA;" width="5.223" height="11.014"/>
					</g>
				</g>
				<g>
					<g>
						<g>
							<path style="fill:#E0E0E0;" d="M440.361,257.058c0,0.116-6.908,0.211-15.427,0.211c-8.522,0-15.428-0.094-15.428-0.211
								c0-0.116,6.906-0.21,15.428-0.21C433.453,256.848,440.361,256.942,440.361,257.058z"/>
						</g>
					</g>
				</g>
				<g>
					<g>
						<g>
							<rect x="421.687" y="263.922" style="fill:#FAFAFA;" width="5.223" height="11.014"/>
						</g>
					</g>
				</g>
			</g>
			<g>
				<g>
					<g>
						<rect x="23.386" y="141.494" style="fill:#F5F5F5;" width="55.66" height="176.398"/>
					</g>
				</g>
				<g>
					<g>
						<rect x="51.216" y="141.494" style="fill:#EBEBEB;" width="27.83" height="175.913"/>
					</g>
				</g>
				<g>
					<g>
						<rect x="29.742" y="124.176" style="fill:#F5F5F5;" width="19.655" height="17.318"/>
					</g>
				</g>
				<g>
					<g>
						<rect x="44.712" y="124.176" style="fill:#EBEBEB;" width="4.685" height="17.318"/>
					</g>
				</g>
				<g>
					<g>
						<polyline style="fill:#E0E0E0;" points="18.747,141.494 18.747,140.484 80.675,140.484 80.675,141.494 						"/>
					</g>
				</g>
				<g>
					<g>
						<rect x="34.373" y="149.047" style="fill:#FAFAFA;" width="4.711" height="9.934"/>
					</g>
				</g>
				<g>
					<g>
						<g>
							<path style="fill:#E0E0E0;" d="M51.216,162.88c0,0.105-6.231,0.19-13.914,0.19c-7.687,0-13.916-0.085-13.916-0.19
								c0-0.105,6.229-0.19,13.916-0.19C44.985,162.69,51.216,162.775,51.216,162.88z"/>
						</g>
					</g>
				</g>
				<g>
					<g>
						<g>
							<rect x="62.445" y="149.047" style="fill:#E0E0E0;" width="4.711" height="9.934"/>
						</g>
					</g>
					<g>
						<g>
							<g>
								<path style="fill:#E0E0E0;" d="M79.288,162.88c0,0.105-6.23,0.19-13.914,0.19c-7.687,0-13.916-0.085-13.916-0.19
									c0-0.105,6.229-0.19,13.916-0.19C73.058,162.69,79.288,162.775,79.288,162.88z"/>
							</g>
						</g>
					</g>
				</g>
				<g>
					<g>
						<g>
							<rect x="62.445" y="168.77" style="fill:#E0E0E0;" width="4.711" height="9.934"/>
						</g>
					</g>
					<g>
						<g>
							<g>
								<path style="fill:#E0E0E0;" d="M79.288,182.604c0,0.105-6.23,0.19-13.914,0.19c-7.687,0-13.916-0.085-13.916-0.19
									s6.229-0.19,13.916-0.19C73.058,182.414,79.288,182.499,79.288,182.604z"/>
							</g>
						</g>
					</g>
				</g>
				<g>
					<g>
						<g>
							<rect x="62.445" y="189.089" style="fill:#E0E0E0;" width="4.711" height="9.934"/>
						</g>
					</g>
					<g>
						<g>
							<g>
								<path style="fill:#E0E0E0;" d="M79.288,202.922c0,0.105-6.23,0.19-13.914,0.19c-7.687,0-13.916-0.085-13.916-0.19
									c0-0.105,6.229-0.19,13.916-0.19C73.058,202.732,79.288,202.817,79.288,202.922z"/>
							</g>
						</g>
					</g>
				</g>
				<g>
					<g>
						<g>
							<rect x="62.445" y="209.408" style="fill:#E0E0E0;" width="4.711" height="9.934"/>
						</g>
					</g>
					<g>
						<g>
							<g>
								<path style="fill:#E0E0E0;" d="M79.288,223.24c0,0.105-6.23,0.19-13.914,0.19c-7.687,0-13.916-0.085-13.916-0.19
									c0-0.105,6.229-0.189,13.916-0.189C73.058,223.051,79.288,223.136,79.288,223.24z"/>
							</g>
						</g>
					</g>
				</g>
				<g>
					<g>
						<g>
							<rect x="62.445" y="229.145" style="fill:#E0E0E0;" width="4.711" height="9.934"/>
						</g>
					</g>
					<g>
						<g>
							<g>
								<path style="fill:#E0E0E0;" d="M79.288,242.978c0,0.105-6.23,0.19-13.914,0.19c-7.687,0-13.916-0.085-13.916-0.19
									c0-0.105,6.229-0.19,13.916-0.19C73.058,242.788,79.288,242.874,79.288,242.978z"/>
							</g>
						</g>
					</g>
				</g>
				<g>
					<g>
						<g>
							<rect x="62.445" y="248.962" style="fill:#E0E0E0;" width="4.711" height="9.934"/>
						</g>
					</g>
					<g>
						<g>
							<rect x="62.445" y="269.039" style="fill:#E0E0E0;" width="4.711" height="9.934"/>
						</g>
					</g>
					<g>
						<g>
							<g>
								<path style="fill:#E0E0E0;" d="M79.288,262.795c0,0.105-6.23,0.19-13.914,0.19c-7.687,0-13.916-0.085-13.916-0.19
									c0-0.105,6.229-0.19,13.916-0.19C73.058,262.606,79.288,262.691,79.288,262.795z"/>
							</g>
						</g>
					</g>
				</g>
				<g>
					<g>
						<rect x="34.373" y="169.071" style="fill:#FAFAFA;" width="4.711" height="9.934"/>
					</g>
				</g>
				<g>
					<g>
						<g>
							<path style="fill:#E0E0E0;" d="M51.216,182.905c0,0.105-6.231,0.19-13.914,0.19c-7.687,0-13.916-0.085-13.916-0.19
								c0-0.105,6.229-0.19,13.916-0.19C44.985,182.715,51.216,182.8,51.216,182.905z"/>
						</g>
					</g>
				</g>
				<g>
					<g>
						<rect x="34.373" y="189.096" style="fill:#FAFAFA;" width="4.711" height="9.934"/>
					</g>
				</g>
				<g>
					<g>
						<g>
							<path style="fill:#E0E0E0;" d="M51.216,202.929c0,0.105-6.231,0.19-13.914,0.19c-7.687,0-13.916-0.085-13.916-0.19
								c0-0.105,6.229-0.189,13.916-0.189C44.985,202.739,51.216,202.824,51.216,202.929z"/>
						</g>
					</g>
				</g>
				<g>
					<g>
						<rect x="34.373" y="209.12" style="fill:#FAFAFA;" width="4.711" height="9.934"/>
					</g>
				</g>
				<g>
					<g>
						<g>
							<path style="fill:#E0E0E0;" d="M51.216,222.954c0,0.105-6.231,0.19-13.914,0.19c-7.687,0-13.916-0.085-13.916-0.19
								c0-0.105,6.229-0.19,13.916-0.19C44.985,222.764,51.216,222.849,51.216,222.954z"/>
						</g>
					</g>
				</g>
				<g>
					<g>
						<rect x="34.373" y="229.145" style="fill:#FAFAFA;" width="4.711" height="9.934"/>
					</g>
				</g>
				<g>
					<g>
						<g>
							<path style="fill:#E0E0E0;" d="M51.216,242.978c0,0.105-6.231,0.19-13.914,0.19c-7.687,0-13.916-0.085-13.916-0.19
								c0-0.105,6.229-0.19,13.916-0.19C44.985,242.788,51.216,242.874,51.216,242.978z"/>
						</g>
					</g>
				</g>
				<g>
					<g>
						<rect x="34.373" y="249.169" style="fill:#FAFAFA;" width="4.711" height="9.934"/>
					</g>
				</g>
				<g>
					<g>
						<g>
							<path style="fill:#E0E0E0;" d="M51.216,263.003c0,0.105-6.231,0.19-13.914,0.19c-7.687,0-13.916-0.085-13.916-0.19
								c0-0.105,6.229-0.189,13.916-0.189C44.985,262.813,51.216,262.898,51.216,263.003z"/>
						</g>
					</g>
				</g>
				<g>
					<g>
						<g>
							<rect x="34.373" y="269.194" style="fill:#FAFAFA;" width="4.711" height="9.934"/>
						</g>
					</g>
				</g>
			</g>
			<g>
				<g>
					<g>
						<g>
							<polygon style="fill:#EBEBEB;" points="424.71,318.128 342.987,318.128 342.631,188.969 424.355,188.969 							"/>
						</g>
					</g>
					<g>
						<g>
							<rect x="383.493" y="188.969" style="fill:#E0E0E0;" width="40.862" height="129.159"/>
						</g>
					</g>
					<g>
						<g>
							<rect x="351.963" y="163.541" style="fill:#EBEBEB;" width="28.859" height="25.427"/>
						</g>
					</g>
					<g>
						<g>
							<rect x="373.943" y="163.541" style="fill:#E0E0E0;" width="6.878" height="25.427"/>
						</g>
					</g>
					<g>
						<g>
							<rect x="335.82" y="187.485" style="fill:#E0E0E0;" width="90.926" height="1.483"/>
						</g>
					</g>
					<g>
						<g>
							<rect x="358.762" y="200.058" style="fill:#FFFFFF;" width="6.917" height="14.586"/>
						</g>
					</g>
					<g>
						<g>
							<g>
								<path style="fill:#E0E0E0;" d="M383.493,220.369c0,0.154-9.148,0.278-20.43,0.278c-11.286,0-20.432-0.124-20.432-0.278
									c0-0.154,9.146-0.279,20.432-0.279C374.345,220.09,383.493,220.215,383.493,220.369z"/>
							</g>
						</g>
					</g>
					<g>
						<g>
							<g>
								<rect x="399.98" y="200.058" style="fill:#F5F5F5;" width="6.918" height="14.586"/>
							</g>
						</g>
						<g>
							<g>
								<g>
									<path style="fill:#EBEBEB;" d="M424.71,220.369c0,0.154-9.148,0.278-20.43,0.278c-11.286,0-20.432-0.124-20.432-0.278
										c0-0.154,9.146-0.279,20.432-0.279C415.562,220.09,424.71,220.215,424.71,220.369z"/>
								</g>
							</g>
						</g>
					</g>
					<g>
						<g>
							<g>
								<rect x="399.98" y="229.018" style="fill:#F5F5F5;" width="6.918" height="14.586"/>
							</g>
						</g>
						<g>
							<g>
								<g>
									<path style="fill:#EBEBEB;" d="M424.71,249.329c0,0.154-9.148,0.279-20.43,0.279c-11.286,0-20.432-0.125-20.432-0.279
										c0-0.154,9.146-0.278,20.432-0.278C415.562,249.05,424.71,249.175,424.71,249.329z"/>
								</g>
							</g>
						</g>
					</g>
					<g>
						<g>
							<g>
								<rect x="399.98" y="258.851" style="fill:#F5F5F5;" width="6.918" height="14.586"/>
							</g>
						</g>
						<g>
							<g>
								<g>
									<path style="fill:#EBEBEB;" d="M424.71,279.162c0,0.154-9.148,0.279-20.43,0.279c-11.286,0-20.432-0.125-20.432-0.279
										c0-0.154,9.146-0.278,20.432-0.278C415.562,278.884,424.71,279.008,424.71,279.162z"/>
								</g>
							</g>
						</g>
					</g>
					<g>
						<g>
							<g>
								<rect x="399.98" y="288.685" style="fill:#F5F5F5;" width="6.918" height="14.586"/>
							</g>
						</g>
						<g>
							<g>
								<g>
									<path style="fill:#EBEBEB;" d="M424.71,308.995c0,0.154-9.148,0.279-20.43,0.279c-11.286,0-20.432-0.125-20.432-0.279
										c0-0.154,9.146-0.279,20.432-0.279C415.562,308.717,424.71,308.842,424.71,308.995z"/>
								</g>
							</g>
						</g>
					</g>
					<g>
						<g>
							<rect x="358.762" y="229.46" style="fill:#FFFFFF;" width="6.917" height="14.586"/>
						</g>
					</g>
					<g>
						<g>
							<g>
								<path style="fill:#E0E0E0;" d="M383.493,249.77c0,0.154-9.148,0.279-20.43,0.279c-11.286,0-20.432-0.125-20.432-0.279
									c0-0.154,9.146-0.278,20.432-0.278C374.345,249.492,383.493,249.617,383.493,249.77z"/>
							</g>
						</g>
					</g>
					<g>
						<g>
							<rect x="358.762" y="258.861" style="fill:#FFFFFF;" width="6.917" height="14.586"/>
						</g>
					</g>
					<g>
						<g>
							<g>
								<path style="fill:#E0E0E0;" d="M383.493,279.172c0,0.154-9.148,0.279-20.43,0.279c-11.286,0-20.432-0.125-20.432-0.279
									c0-0.154,9.146-0.279,20.432-0.279C374.345,278.894,383.493,279.018,383.493,279.172z"/>
							</g>
						</g>
					</g>
					<g>
						<g>
							<rect x="358.762" y="288.263" style="fill:#FFFFFF;" width="6.917" height="14.586"/>
						</g>
					</g>
					<g>
						<g>
							<g>
								<path style="fill:#E0E0E0;" d="M383.493,308.574c0,0.154-9.148,0.279-20.43,0.279c-11.286,0-20.432-0.125-20.432-0.279
									c0-0.154,9.146-0.278,20.432-0.278C374.345,308.296,383.493,308.42,383.493,308.574z"/>
							</g>
						</g>
					</g>
				</g>
			</g>
		</g>
	</g>
	<g>
		<g>
			<polygon style="fill:#E0E0E0;" points="123.069,423.612 28.798,423.612 34.227,415.159 128.498,415.159 			"/>
		</g>
		<g>
			<polygon style="fill:#E0E0E0;" points="308.186,423.612 213.915,423.612 219.344,415.159 313.615,415.159 			"/>
		</g>
		<g>
			<polygon style="fill:#E0E0E0;" points="482.478,423.612 388.207,423.612 393.636,415.159 487.907,415.159 			"/>
		</g>
	</g>
	<g>
		<g>
			<rect x="10.032" y="457.649" style="fill:#E0E0E0;" width="25" height="1"/>
		</g>
		<g>
			<path style="fill:#E0E0E0;" d="M417.197,458.649h-47.771v-1h47.771V458.649z M321.656,458.649h-47.77v-1h47.77V458.649z
				 M226.114,458.649h-47.771v-1h47.771V458.649z M130.573,458.649h-47.77v-1h47.77V458.649z"/>
		</g>
		<g>
			<rect x="464.968" y="457.649" style="fill:#E0E0E0;" width="25" height="1"/>
		</g>
	</g>
	<g>
		<g>
			<path style="fill:#EBEBEB;" d="M249.627,64.687c-0.762-2.034-1.539-4.096-2.82-5.849c-1.281-1.753-3.154-3.19-5.309-3.454
				c-2.156-0.264-4.544,0.9-5.246,2.955c-0.309-4.631-0.965-9.382-3.284-13.403c-2.318-4.021-6.643-7.179-11.275-6.896
				c-4.368,0.267-8.107,3.512-10.185,7.363c-2.078,3.851-2.792,8.269-3.474,12.591c-1.656-2.032-5.152-1.393-6.88,0.577
				c-1.728,1.97-2.166,4.725-2.533,7.32h52.116L249.627,64.687z"/>
		</g>
	</g>
	<g>
		<g>
			<path style="fill:#EBEBEB;" d="M383.71,135.072c-0.762-2.034-1.539-4.096-2.82-5.849c-1.281-1.753-3.154-3.19-5.309-3.454
				c-2.156-0.264-4.544,0.9-5.246,2.955c-0.309-4.631-0.965-9.382-3.283-13.403c-2.318-4.021-6.643-7.179-11.276-6.896
				c-4.368,0.267-8.107,3.512-10.185,7.363c-2.078,3.851-2.792,8.269-3.474,12.591c-1.656-2.032-5.152-1.393-6.88,0.577
				c-1.728,1.971-2.166,4.725-2.533,7.32h52.116L383.71,135.072z"/>
		</g>
	</g>
	<g>
		<g>
			<path style="fill:#EBEBEB;" d="M197.378,109.298c-0.488-1.302-0.985-2.622-1.805-3.744c-0.82-1.122-2.019-2.042-3.398-2.211
				c-1.38-0.169-2.908,0.576-3.358,1.891c-0.198-2.964-0.618-6.005-2.102-8.579c-1.484-2.574-4.252-4.595-7.217-4.414
				c-2.796,0.171-5.189,2.248-6.52,4.713c-1.33,2.465-1.787,5.293-2.223,8.06c-1.06-1.3-3.298-0.892-4.404,0.37
				c-1.106,1.261-1.386,3.024-1.622,4.685h33.359L197.378,109.298z"/>
		</g>
	</g>
	<g>
		<g>
			<path style="fill:#EBEBEB;" d="M422.867,64.44c-0.488-1.302-0.985-2.622-1.805-3.744c-0.82-1.122-2.019-2.042-3.398-2.211
				c-1.38-0.169-2.909,0.576-3.358,1.891c-0.198-2.964-0.618-6.005-2.102-8.579c-1.484-2.574-4.252-4.595-7.217-4.414
				c-2.796,0.171-5.189,2.248-6.52,4.713c-1.33,2.465-1.787,5.293-2.223,8.06c-1.06-1.3-3.298-0.892-4.404,0.37
				c-1.106,1.261-1.386,3.024-1.621,4.685h33.359L422.867,64.44z"/>
		</g>
	</g>
	<g>
		<g>
			<path style="fill:#EBEBEB;" d="M81.1,55.521c-0.488-1.302-0.985-2.622-1.805-3.744c-0.82-1.122-2.019-2.042-3.398-2.211
				c-1.38-0.169-2.909,0.576-3.358,1.891c-0.198-2.964-0.618-6.005-2.102-8.579c-1.484-2.574-4.252-4.595-7.217-4.414
				c-2.796,0.171-5.19,2.248-6.52,4.713c-1.33,2.465-1.787,5.293-2.223,8.06c-1.06-1.3-3.298-0.892-4.404,0.37
				c-1.106,1.261-1.386,3.024-1.621,4.685h33.359L81.1,55.521z"/>
		</g>
	</g>
	<g>
		<g>
			<path style="fill:#F5F5F5;" d="M168.062,69.024c-0.273-0.729-0.551-1.468-1.01-2.096c-0.459-0.628-1.13-1.143-1.902-1.238
				s-1.628,0.322-1.88,1.059c-0.111-1.659-0.346-3.361-1.176-4.802s-2.38-2.573-4.04-2.471c-1.565,0.096-2.905,1.258-3.65,2.638
				c-0.745,1.38-1,2.963-1.245,4.512c-0.593-0.728-1.846-0.499-2.465,0.207c-0.619,0.706-0.776,1.693-0.908,2.623h18.674
				L168.062,69.024z"/>
		</g>
	</g>
	<g>
		<g>
			<path style="fill:#F5F5F5;" d="M449.3,79.142c-0.273-0.729-0.551-1.468-1.01-2.096c-0.459-0.628-1.13-1.143-1.902-1.237
				c-0.772-0.094-1.628,0.322-1.88,1.059c-0.111-1.659-0.346-3.362-1.176-4.802c-0.831-1.441-2.38-2.572-4.04-2.471
				c-1.565,0.096-2.905,1.258-3.65,2.638c-0.745,1.38-1,2.963-1.245,4.512c-0.593-0.728-1.846-0.499-2.465,0.207
				c-0.619,0.706-0.776,1.693-0.908,2.623h18.674L449.3,79.142z"/>
		</g>
	</g>
</g>
<g id="Background_Simple" style="display:none;">
	<g style="display:inline;">
		<path style="fill:#F5F5F5;" d="M85.104,113.353l1.542-3.56c12.996-30.009,41.087-50.887,73.404-53.269
			c4.154-0.306,8.332-0.313,12.497-0.004c29.988,2.227,58.365,20.768,72.753,47.534c8.462,15.742,12.817,34.607,26.354,46.164
			c17.618,15.04,43.6,12.013,66.28,8.169c22.68-3.844,48.688-6.806,66.241,8.312c10.993,9.468,16.125,24.377,17.344,38.915
			c3.227,38.489-18.697,76.318-50.221,97.959c-31.524,21.641-71.182,28.648-109.268,26.277
			c-53.354-3.322-106.679-25.268-142.462-65.573C83.785,223.971,67.953,164.53,85.104,113.353z"/>
	</g>
</g>
<g id="Floor">
	<g>
		<g>
			<path style="fill:#263238;" d="M483.693,316.188c0,0.144-104.636,0.26-233.682,0.26c-129.09,0-233.704-0.117-233.704-0.26
				s104.614-0.26,233.704-0.26C379.057,315.927,483.693,316.044,483.693,316.188z"/>
		</g>
	</g>
</g>
<g id="Bus">
	<g>
		<g>
			<g>
				<g>
					<rect x="93.473" y="361.697" style="fill:#FF725E;" width="367.998" height="37.85"/>
				</g>
				<g style="opacity:0.3;">
					<rect x="93.473" y="361.697" width="367.998" height="37.85"/>
				</g>
			</g>
			<g>
				<path style="fill:#FF725E;" d="M476.757,341.33c0.177-29.644-9.282-70.669-18.977-103.91
					c-2.363-9.723-11.089-16.554-21.095-16.554H48.764c-8.406,0-15.221,6.815-15.221,15.221v155.019l42.973,8.912l20.816,0.13
					c-0.004-0.2-0.015-0.398-0.015-0.599c0-17.595,14.264-31.859,31.859-31.859c17.596,0,31.859,14.264,31.859,31.859
					c0,0.334-0.015,0.665-0.025,0.997l147.315,1.412l84.013,0.033c0-0.024-0.002-0.048-0.002-0.073
					c0-17.595,14.264-31.859,31.859-31.859c17.596,0,31.859,14.264,31.859,31.859c0,0.158-0.01,0.313-0.012,0.471l19.026,0.119
					C475.069,402.506,477.615,370.652,476.757,341.33z"/>
			</g>
			<g style="opacity:0.3;">
				<polygon style="fill:#FFFFFF;" points="33.542,277.29 468.137,277.29 471.886,295.529 33.542,295.529 				"/>
			</g>
			<g>
				<path style="fill:#263238;" d="M47.308,270.597H448.74l-5.26-42.135H60.966c-7.035,0-12.923,6.332-13.614,14.64L47.308,270.597z
					"/>
			</g>
			<g>
				<path style="fill:#455A64;" d="M52.088,266.113h389.128l-4.563-33.206H63.936c-6.102,0-11.21,4.99-11.81,11.538L52.088,266.113z
					"/>
			</g>
			<g style="opacity:0.3;">
				<polygon style="fill:#FFFFFF;" points="52.088,262.639 87.443,232.907 100.389,232.907 61.311,266.113 52.088,266.113 				"/>
			</g>
			<g style="opacity:0.2;">
				<polygon style="fill:#FFFFFF;" points="127.693,266.113 168.054,232.907 185.114,232.907 145.536,266.113 132.7,266.113 				"/>
			</g>
			<g style="opacity:0.2;">
				<polygon style="fill:#FFFFFF;" points="220.832,266.113 261.193,232.907 268.509,232.907 229.12,266.113 225.838,266.113 				
					"/>
			</g>
			<g style="opacity:0.2;">
				<polygon style="fill:#FFFFFF;" points="236.935,266.113 277.296,232.907 289.562,232.907 251.364,266.113 241.941,266.113 				
					"/>
			</g>
			<g style="opacity:0.3;">
				<polygon style="fill:#FFFFFF;" points="69.672,265.805 108.192,232.907 112.723,232.907 72.838,266.113 72.838,266.113 				"/>
			</g>
			<g style="opacity:0.3;">
				<polygon style="fill:#FFFFFF;" points="328.037,262.639 363.392,232.907 376.338,232.907 337.259,266.113 328.037,266.113 				
					"/>
			</g>
			<g>
				<g>
					<path style="fill:#263238;" d="M39.671,392.362c-0.144-0.001,0.019-37.909,0.363-84.658c0.344-46.766,0.74-84.663,0.884-84.662
						c0.144,0.001-0.019,37.9-0.363,84.666C40.21,354.457,39.815,392.363,39.671,392.362z"/>
				</g>
			</g>
			<g>
				<path style="fill:#263238;" d="M80.612,306.862v23.019c0,11.941,9.63,21.647,21.57,21.741l179.986,1.425v-46.185H80.612z"/>
			</g>
			<g>
				<path style="fill:#455A64;" d="M85.412,311.106v18.788c0,9.746,7.86,17.668,17.606,17.746l174.388,1.163v-37.697H85.412z"/>
			</g>
			<g style="opacity:0.2;">
				<polygon style="fill:#FFFFFF;" points="158.698,311.106 114.788,347.719 134.061,347.927 177.364,311.106 				"/>
			</g>
			<g style="opacity:0.2;">
				<polygon style="fill:#FFFFFF;" points="188.603,311.106 144.693,347.719 163.966,347.927 207.269,311.106 				"/>
			</g>
			<g>
				<g>
					<path style="fill:#263238;" d="M76.516,400.017c-0.009,0-0.019-0.083-0.03-0.245c-0.01-0.193-0.021-0.429-0.036-0.719
						c-0.021-0.675-0.051-1.598-0.088-2.765c-0.055-2.447-0.132-5.91-0.227-10.17c-0.142-8.627-0.336-20.471-0.55-33.554
						c-0.053-3.969-0.105-7.824-0.154-11.449l0.25,0.249c-10.33-0.159-19.317-0.297-25.773-0.396
						c-3.172-0.069-5.72-0.124-7.524-0.164c-0.846-0.028-1.516-0.05-2.016-0.066c-0.459-0.02-0.698-0.038-0.697-0.053
						c0-0.015,0.239-0.027,0.698-0.036c0.5-0.004,1.17-0.011,2.017-0.018c1.804,0.004,4.352,0.009,7.525,0.015
						c6.456,0.053,15.444,0.128,25.775,0.214l0.246,0.002l0.004,0.247c0.054,3.625,0.111,7.48,0.17,11.449
						c0.155,13.084,0.296,24.929,0.398,33.557c0.026,4.261,0.046,7.725,0.061,10.172c-0.004,1.167-0.007,2.091-0.01,2.766
						c-0.006,0.29-0.011,0.527-0.016,0.72C76.533,399.934,76.525,400.017,76.516,400.017z"/>
				</g>
			</g>
			<g>
				<g>
					<path style="fill:#263238;" d="M388.925,381.755c0,0.144-52.326,0.26-116.859,0.26c-64.555,0-116.87-0.117-116.87-0.26
						s52.315-0.26,116.87-0.26C336.599,381.495,388.925,381.611,388.925,381.755z"/>
				</g>
			</g>
			<g>
				<g>
					<path style="fill:#263238;" d="M388.925,402.506c-0.009,0-0.018-0.084-0.027-0.247c-0.007-0.194-0.015-0.432-0.026-0.725
						c-0.012-0.68-0.028-1.61-0.049-2.787c-0.02-2.465-0.048-5.955-0.083-10.249c-0.02-8.693-0.047-20.628-0.076-33.813
						c0.03-13.189,0.057-25.126,0.076-33.818c0.035-4.294,0.063-7.783,0.083-10.248c0.021-1.176,0.037-2.107,0.049-2.786
						c0.01-0.293,0.019-0.53,0.026-0.725c0.009-0.163,0.018-0.247,0.027-0.247c0.009,0,0.018,0.084,0.027,0.247
						c0.007,0.194,0.015,0.432,0.026,0.725c0.012,0.679,0.028,1.61,0.049,2.786c0.02,2.465,0.048,5.955,0.083,10.248
						c0.02,8.693,0.047,20.629,0.076,33.818c-0.03,13.184-0.057,25.12-0.076,33.813c-0.035,4.294-0.063,7.784-0.083,10.249
						c-0.021,1.177-0.037,2.107-0.049,2.787c-0.01,0.293-0.019,0.531-0.026,0.725C388.943,402.423,388.934,402.506,388.925,402.506z
						"/>
				</g>
			</g>
			<g>
				<g>
					<path style="fill:#263238;" d="M71.111,385.612c-0.009-0.009-0.017-0.195-0.026-0.548c-0.007-0.385-0.015-0.897-0.027-1.545
						c-0.014-1.379-0.035-3.332-0.06-5.796c-0.028-4.987-0.068-12.034-0.116-20.447l0.228,0.228
						c-7.608,0.009-16.482,0.02-25.921,0.032c-0.06,0.056,0.491-0.49,0.258-0.255v0.008v0.015v0.031v0.061v0.122v0.244v0.487
						l0,0.971c0,0.646,0,1.289,0,1.929c-0.001,1.28-0.001,2.548-0.002,3.801c-0.003,2.507-0.005,4.957-0.007,7.337
						c-0.01,4.757-0.02,9.234-0.028,13.325l-0.222-0.222c7.74,0.047,14.185,0.086,18.739,0.114c2.246,0.024,4.024,0.044,5.282,0.058
						c0.587,0.011,1.052,0.019,1.405,0.026C70.933,385.595,71.102,385.603,71.111,385.612c0.008,0.008-0.145,0.016-0.45,0.025
						c-0.342,0.007-0.793,0.015-1.362,0.026c-1.246,0.014-3.007,0.033-5.232,0.058c-4.588,0.028-11.082,0.067-18.88,0.114
						l-0.221,0.001l0-0.223c-0.009-4.091-0.018-8.568-0.029-13.325c-0.002-2.38-0.005-4.83-0.007-7.337
						c-0.001-1.253-0.001-2.521-0.002-3.801c0-0.64,0-1.283,0-1.929l0-0.971l0-0.487v-0.244v-0.122v-0.061v-0.031v-0.015v-0.008
						c-0.232,0.23,0.316-0.323,0.263-0.265c9.44,0.012,18.314,0.023,25.921,0.032l0.23,0l-0.001,0.228
						c-0.048,8.473-0.088,15.571-0.116,20.594c-0.025,2.442-0.046,4.377-0.06,5.744c-0.011,0.629-0.02,1.126-0.027,1.5
						C71.128,385.451,71.119,385.621,71.111,385.612z"/>
				</g>
			</g>
			<g>
				<rect x="33.542" y="361.697" style="fill:#FFFFFF;" width="4.008" height="23.914"/>
			</g>
			<g>
				<rect x="50.844" y="236.284" style="fill:#263238;" width="392.458" height="1.685"/>
			</g>
			<g>
				<rect x="83.745" y="315.903" style="fill:#263238;" width="194.852" height="1.685"/>
			</g>
			<g>
				<rect x="93.473" y="230.117" style="fill:#263238;" width="2.093" height="38.785"/>
			</g>
			<g>
				<rect x="151.818" y="230.117" style="fill:#263238;" width="2.093" height="38.785"/>
			</g>
			<g>
				<rect x="174.604" y="310.562" style="fill:#263238;" width="2.093" height="38.785"/>
			</g>
			<g>
				<rect x="231.878" y="310.562" style="fill:#263238;" width="2.093" height="38.785"/>
			</g>
			<g>
				<rect x="115.148" y="310.562" style="fill:#263238;" width="2.093" height="38.785"/>
			</g>
			<g>
				<rect x="210.164" y="230.117" style="fill:#263238;" width="2.093" height="38.785"/>
			</g>
			<g>
				<rect x="268.509" y="230.117" style="fill:#263238;" width="2.093" height="38.785"/>
			</g>
			<g>
				<rect x="326.855" y="230.117" style="fill:#263238;" width="2.093" height="38.785"/>
			</g>
			<g>
				<rect x="385.2" y="230.117" style="fill:#263238;" width="2.093" height="38.785"/>
			</g>
			<g>
				<g>
					<g>
						<path style="fill:#263238;" d="M66.392,326.48c-0.005-0.005-0.01-0.075-0.015-0.206c-0.004-0.156-0.009-0.345-0.015-0.577
							c-0.008-0.538-0.018-1.272-0.031-2.205c-0.016-1.948-0.04-4.722-0.069-8.192c-0.029-6.99-0.07-16.775-0.118-28.13l0.248,0.248
							c-5.166,0.004-10.777,0.008-16.595,0.012c0.515-0.522,0.143-0.138,0.258-0.252v0.011v0.022v0.045v0.09v0.18v0.359l0,0.716
							l0,1.425c0,0.947-0.001,1.887-0.001,2.821c-0.001,1.867-0.003,3.707-0.004,5.516c-0.005,3.616-0.01,7.105-0.015,10.432
							c-0.021,6.643-0.039,12.633-0.055,17.686l-0.185-0.185c5.076,0.042,9.196,0.076,12.088,0.1
							c1.413,0.02,2.525,0.035,3.322,0.046c0.36,0.008,0.648,0.015,0.875,0.02C66.28,326.467,66.386,326.473,66.392,326.48
							s-0.086,0.013-0.274,0.019c-0.219,0.005-0.496,0.012-0.842,0.02c-0.787,0.011-1.885,0.026-3.281,0.046
							c-2.92,0.024-7.078,0.058-12.201,0.1l-0.185,0.001l-0.001-0.187c-0.016-5.053-0.034-11.043-0.055-17.686
							c-0.005-3.327-0.01-6.816-0.015-10.432c-0.001-1.809-0.002-3.649-0.004-5.516c0-0.934-0.001-1.874-0.001-2.821l0-1.425
							l0-0.716v-0.359v-0.18v-0.09v-0.045v-0.022v-0.011c0.117-0.119-0.263,0.25,0.263-0.269c5.818,0.004,11.428,0.008,16.595,0.012
							l0.25,0l-0.001,0.249c-0.048,11.422-0.088,21.266-0.118,28.298c-0.029,3.446-0.052,6.2-0.069,8.135
							c-0.013,0.911-0.024,1.629-0.031,2.154C66.413,326.243,66.402,326.49,66.392,326.48z"/>
					</g>
				</g>
				<g>
					<g>
						<path style="fill:#263238;" d="M66.303,290.738c0,0.144-3.69,0.26-8.241,0.26c-4.552,0-8.242-0.116-8.242-0.26
							c0-0.144,3.689-0.26,8.242-0.26C62.612,290.478,66.303,290.594,66.303,290.738z"/>
					</g>
				</g>
				<g>
					<g>
						<path style="fill:#263238;" d="M66.303,294.094c0,0.144-3.69,0.26-8.241,0.26c-4.552,0-8.242-0.117-8.242-0.26
							s3.689-0.26,8.242-0.26C62.612,293.834,66.303,293.95,66.303,294.094z"/>
					</g>
				</g>
				<g>
					<g>
						<path style="fill:#263238;" d="M66.303,297.45c0,0.144-3.69,0.26-8.241,0.26c-4.552,0-8.242-0.117-8.242-0.26
							s3.689-0.26,8.242-0.26C62.612,297.19,66.303,297.307,66.303,297.45z"/>
					</g>
				</g>
				<g>
					<g>
						<path style="fill:#263238;" d="M66.303,300.807c0,0.144-3.69,0.26-8.241,0.26c-4.552,0-8.242-0.117-8.242-0.26
							c0-0.144,3.689-0.26,8.242-0.26C62.612,300.546,66.303,300.663,66.303,300.807z"/>
					</g>
				</g>
				<g>
					<g>
						<path style="fill:#263238;" d="M66.303,304.163c0,0.144-3.69,0.26-8.241,0.26c-4.552,0-8.242-0.117-8.242-0.26
							s3.689-0.26,8.242-0.26C62.612,303.902,66.303,304.019,66.303,304.163z"/>
					</g>
				</g>
				<g>
					<g>
						<path style="fill:#263238;" d="M66.303,307.519c0,0.144-3.69,0.26-8.241,0.26c-4.552,0-8.242-0.117-8.242-0.26
							c0-0.144,3.689-0.26,8.242-0.26C62.612,307.259,66.303,307.375,66.303,307.519z"/>
					</g>
				</g>
				<g>
					<g>
						<path style="fill:#263238;" d="M66.303,310.875c0,0.144-3.69,0.26-8.241,0.26c-4.552,0-8.242-0.117-8.242-0.26
							s3.689-0.26,8.242-0.26C62.612,310.615,66.303,310.732,66.303,310.875z"/>
					</g>
				</g>
				<g>
					<g>
						<path style="fill:#263238;" d="M66.303,314.232c0,0.144-3.69,0.26-8.241,0.26c-4.552,0-8.242-0.117-8.242-0.26
							c0-0.144,3.689-0.26,8.242-0.26C62.612,313.971,66.303,314.088,66.303,314.232z"/>
					</g>
				</g>
				<g>
					<g>
						<path style="fill:#263238;" d="M66.303,317.588c0,0.144-3.69,0.26-8.241,0.26c-4.552,0-8.242-0.117-8.242-0.26
							s3.689-0.26,8.242-0.26C62.612,317.328,66.303,317.444,66.303,317.588z"/>
					</g>
				</g>
				<g>
					<g>
						<path style="fill:#263238;" d="M66.303,320.944c0,0.144-3.69,0.26-8.241,0.26c-4.552,0-8.242-0.116-8.242-0.26
							c0-0.144,3.689-0.26,8.242-0.26C62.612,320.684,66.303,320.8,66.303,320.944z"/>
					</g>
				</g>
				<g>
					<g>
						<path style="fill:#263238;" d="M66.303,324.3c0,0.144-3.69,0.26-8.241,0.26c-4.552,0-8.242-0.117-8.242-0.26
							c0-0.144,3.689-0.26,8.242-0.26C62.612,324.04,66.303,324.157,66.303,324.3z"/>
					</g>
				</g>
			</g>
			<g style="opacity:0.3;">
				<path d="M57.366,235.051c0,0,1.466-1.966,6.97-2.144h372.317l0.295,2.144H57.366z"/>
			</g>
			<g style="opacity:0.3;">
				<polygon points="85.412,311.106 85.412,314.232 277.406,314.232 277.406,310.875 				"/>
			</g>
			<g>
				<g>
					<path style="fill:#263238;" d="M388.208,306.862v46.185h80.569c0,0,2.387-34.228-2.01-45.66L388.208,306.862z"/>
				</g>
				<g>
					<path style="fill:#455A64;" d="M452.174,311.012v38.38h12.292c0,0,0.895-16.339,0.275-26.036
						c-0.452-7.074-1.287-12.344-1.287-12.344H452.174z"/>
				</g>
				<g>
					<polygon style="fill:#455A64;" points="449.097,311.054 449.097,349.35 391.737,349.392 391.737,310.518 					"/>
				</g>
				<g style="opacity:0.2;">
					<polygon style="fill:#FFFFFF;" points="435.503,310.927 391.737,349.174 411.01,349.392 449.097,316.022 449.097,311.054 					
						"/>
				</g>
			</g>
			<g>
				<g>
					<g>
						<g>
							<g>
								<g>
									<g>
										<g>
											<g>
												<g>
													<g>
														<g>
															<g>
																
																	<ellipse transform="matrix(0.9995 -0.0308 0.0308 0.9995 -12.2624 4.1696)" style="fill:#263238;" cx="129.178" cy="400.017" rx="27.588" ry="27.588"/>
															</g>
														</g>
													</g>
												</g>
											</g>
										</g>
									</g>
								</g>
							</g>
						</g>
					</g>
				</g>
				<g>
					<g>
						<g>
							<g>
								<g>
									<g>
										<g>
											<g>
												<g>
													<g>
														<g>
															<g>
																<path style="fill:#263238;" d="M101.598,399.548c-0.001,0.024-0.004,0.047-0.005,0.071
																	c-0.22,15.234,11.952,27.763,27.187,27.983c15.235,0.22,27.763-11.952,27.983-27.187
																	c0-0.024-0.003-0.047-0.003-0.071L101.598,399.548z"/>
															</g>
														</g>
													</g>
												</g>
											</g>
										</g>
									</g>
								</g>
							</g>
						</g>
					</g>
				</g>
				<g>
					<g>
						<g>
							<g>
								<g>
									<g>
										<g>
											<g>
												<g>
													<g>
														<g>
															<g>
																<path style="fill:#FAFAFA;" d="M109.812,399.737c-0.154,10.696,8.391,19.492,19.087,19.646
																	c10.696,0.154,19.492-8.391,19.646-19.087c0.154-10.696-8.391-19.492-19.087-19.646
																	C118.761,380.496,109.966,389.042,109.812,399.737z"/>
															</g>
														</g>
													</g>
												</g>
											</g>
										</g>
									</g>
								</g>
							</g>
						</g>
					</g>
				</g>
				<g>
					<g>
						<g>
							<g>
								<g>
									<g>
										<g>
											<g>
												<g>
													<g>
														<g>
															<g>
																<path style="fill:#E0E0E0;" d="M129.457,380.65c-10.696-0.154-19.491,8.391-19.646,19.087l38.733,0.559
																	C148.699,389.6,140.153,380.805,129.457,380.65z"/>
															</g>
														</g>
													</g>
												</g>
											</g>
										</g>
									</g>
								</g>
							</g>
						</g>
					</g>
				</g>
				<g>
					<g>
						<g>
							<g>
								<g>
									<g>
										<g>
											<g>
												<g>
													<g>
														<g>
															<g>
																<path style="fill:#263238;" d="M117.381,399.847c-0.094,6.515,5.112,11.873,11.627,11.967
																	c6.515,0.094,11.874-5.112,11.968-11.627c0.094-6.516-5.112-11.873-11.627-11.967
																	C122.833,388.126,117.475,393.331,117.381,399.847z"/>
															</g>
														</g>
													</g>
												</g>
											</g>
										</g>
									</g>
								</g>
							</g>
						</g>
					</g>
				</g>
			</g>
			<g>
				<g>
					<g>
						<g>
							<g>
								<g>
									<g>
										<g>
											<g>
												<g>
													<g>
														<g>
															<g>
																<path style="fill:#263238;" d="M396.602,401.988c-0.22,15.234,11.952,27.763,27.187,27.983
																	c15.235,0.22,27.763-11.952,27.983-27.187c0.22-15.235-11.952-27.763-27.187-27.983
																	C409.35,374.581,396.822,386.753,396.602,401.988z"/>
															</g>
														</g>
													</g>
												</g>
											</g>
										</g>
									</g>
								</g>
							</g>
						</g>
					</g>
				</g>
				<g>
					<g>
						<g>
							<g>
								<g>
									<g>
										<g>
											<g>
												<g>
													<g>
														<g>
															<g>
																<path style="fill:#263238;" d="M396.607,401.917c-0.001,0.024-0.005,0.047-0.005,0.071
																	c-0.22,15.234,11.952,27.763,27.187,27.983c15.235,0.22,27.763-11.952,27.983-27.187
																	c0-0.024-0.003-0.047-0.003-0.071L396.607,401.917z"/>
															</g>
														</g>
													</g>
												</g>
											</g>
										</g>
									</g>
								</g>
							</g>
						</g>
					</g>
				</g>
				<g>
					<g>
						<g>
							<g>
								<g>
									<g>
										<g>
											<g>
												<g>
													<g>
														<g>
															<g>
																<path style="fill:#FAFAFA;" d="M404.82,402.107c-0.154,10.696,8.391,19.492,19.087,19.646
																	c10.696,0.154,19.492-8.391,19.646-19.087c0.154-10.696-8.391-19.492-19.087-19.646
																	C413.77,382.865,404.975,391.411,404.82,402.107z"/>
															</g>
														</g>
													</g>
												</g>
											</g>
										</g>
									</g>
								</g>
							</g>
						</g>
					</g>
				</g>
				<g>
					<g>
						<g>
							<g>
								<g>
									<g>
										<g>
											<g>
												<g>
													<g>
														<g>
															<g>
																<path style="fill:#E0E0E0;" d="M424.466,383.019c-10.696-0.154-19.491,8.391-19.645,19.087l38.733,0.559
																	C443.707,391.969,435.162,383.174,424.466,383.019z"/>
															</g>
														</g>
													</g>
												</g>
											</g>
										</g>
									</g>
								</g>
							</g>
						</g>
					</g>
				</g>
				<g>
					<g>
						<g>
							<g>
								<g>
									<g>
										<g>
											<g>
												<g>
													<g>
														<g>
															<g>
																<path style="fill:#263238;" d="M412.39,402.216c-0.094,6.515,5.111,11.873,11.627,11.967
																	c6.515,0.094,11.874-5.111,11.968-11.627c0.094-6.516-5.112-11.874-11.627-11.967
																	C417.842,390.495,412.484,395.7,412.39,402.216z"/>
															</g>
														</g>
													</g>
												</g>
											</g>
										</g>
									</g>
								</g>
							</g>
						</g>
					</g>
				</g>
			</g>
			<g>
				<g>
					<path style="fill:#263238;" d="M76.704,383.581c0-0.144,5.501-0.26,12.285-0.26c6.786,0,12.286,0.116,12.286,0.26
						s-5.5,0.26-12.286,0.26C82.205,383.842,76.704,383.725,76.704,383.581z"/>
				</g>
			</g>
			<g>
				<g>
					<g>
						<rect x="304.172" y="298.765" style="fill:#263238;" width="64.992" height="103.192"/>
					</g>
					<g>
						<rect x="307.8" y="305.835" style="fill:#455A64;" width="24.715" height="80.724"/>
					</g>
					<g>
						<rect x="340.339" y="305.835" style="fill:#455A64;" width="24.715" height="80.724"/>
					</g>
					<g>
						<g>
							<path style="fill:#455A64;" d="M336.565,298.765c0.144,0,0.26,22.932,0.26,51.213c0,28.291-0.117,51.218-0.26,51.218
								s-0.26-22.927-0.26-51.218C336.305,321.697,336.421,298.765,336.565,298.765z"/>
						</g>
					</g>
				</g>
				<g style="opacity:0.3;">
					<polygon style="fill:#FFFFFF;" points="307.8,355.486 307.8,366.361 332.516,343.703 332.516,333.254 					"/>
				</g>
				<g style="opacity:0.3;">
					<polygon style="fill:#FFFFFF;" points="340.339,368.429 340.339,379.303 365.054,356.646 365.054,346.197 					"/>
				</g>
				<g style="opacity:0.2;">
					<polygon style="fill:#FFFFFF;" points="350.928,305.835 340.339,315.36 340.339,326.234 362.591,305.835 					"/>
				</g>
				<g style="opacity:0.3;">
					<polygon style="fill:#FFFFFF;" points="307.791,370.513 307.75,374.075 332.516,351.646 332.516,348.508 					"/>
				</g>
				<g style="opacity:0.2;">
					<rect x="307.8" y="305.835" width="57.254" height="1.699"/>
				</g>
			</g>
		</g>
		<g>
			<polygon style="fill:#FAFAFA;" points="476.533,375.546 471.522,375.546 470.982,389.84 475.717,392.841 			"/>
		</g>
		<g>
			<path style="fill:#FFBF9D;" d="M462.977,378.763h-2.935c-1.095,0-1.983-0.888-1.983-1.983l0,0c0-1.095,0.888-1.983,1.983-1.983
				h2.935c1.095,0,1.983,0.888,1.983,1.983l0,0C464.96,377.876,464.072,378.763,462.977,378.763z"/>
		</g>
		<g>
			<path style="fill:#FFBF9D;" d="M293.477,378.763h-2.935c-1.095,0-1.983-0.888-1.983-1.983l0,0c0-1.095,0.888-1.983,1.983-1.983
				h2.935c1.095,0,1.983,0.888,1.983,1.983l0,0C295.46,377.876,294.572,378.763,293.477,378.763z"/>
		</g>
		<g>
			<path style="fill:#FFBF9D;" d="M378.766,378.763h-2.935c-1.095,0-1.983-0.888-1.983-1.983l0,0c0-1.095,0.888-1.983,1.983-1.983
				h2.935c1.095,0,1.983,0.888,1.983,1.983l0,0C380.748,377.876,379.861,378.763,378.766,378.763z"/>
		</g>
		<g>
			<path style="fill:#FFBF9D;" d="M88.99,378.763h-2.935c-1.095,0-1.983-0.888-1.983-1.983l0,0c0-1.095,0.888-1.983,1.983-1.983
				h2.935c1.095,0,1.983,0.888,1.983,1.983l0,0C90.973,377.876,90.085,378.763,88.99,378.763z"/>
		</g>
		<g>
			<g>
				<path style="fill:#263238;" d="M33.542,350.987c0.144,0,0.26,9.032,0.26,20.172c0,11.143-0.117,20.173-0.26,20.173
					c-0.144,0-0.26-9.03-0.26-20.173C33.282,360.02,33.399,350.987,33.542,350.987z"/>
			</g>
		</g>
		<g>
			<g>
				<path style="fill:#263238;" d="M476.753,365.922c0.036,0,0.07,0.512,0.102,1.439c0.034,0.927,0.053,2.27,0.053,3.928
					c0.002,3.317-0.108,7.9-0.37,12.953c-0.264,5.055-0.608,9.624-0.892,12.927c-0.142,1.652-0.269,2.987-0.369,3.909
					c-0.1,0.922-0.172,1.431-0.208,1.428c-0.036-0.003-0.032-0.516,0.006-1.443c0.053-1.024,0.121-2.341,0.203-3.921
					c0.195-3.406,0.453-7.928,0.739-12.927c0.262-5.048,0.43-9.62,0.522-12.932c0.045-1.581,0.083-2.898,0.113-3.923
					C476.683,366.435,476.717,365.922,476.753,365.922z"/>
			</g>
		</g>
	</g>
</g>
<g id="Sun">
	<g>
		<g>
			<g>
				<g>
					<circle style="fill-rule:evenodd;clip-rule:evenodd;fill:#FF725E;" cx="320.133" cy="69.455" r="28.945"/>
				</g>
			</g>
			<g style="opacity:0.9;">
				<g>
					<circle style="fill-rule:evenodd;clip-rule:evenodd;fill:#FFFFFF;" cx="320.133" cy="69.455" r="28.945"/>
				</g>
			</g>
		</g>
		<g>
			<g>
				<g>
					<circle style="fill-rule:evenodd;clip-rule:evenodd;fill:#FF725E;" cx="320.133" cy="69.455" r="25.814"/>
				</g>
			</g>
			<g style="opacity:0.6;">
				<g>
					<circle style="fill-rule:evenodd;clip-rule:evenodd;fill:#FFFFFF;" cx="320.133" cy="69.455" r="25.814"/>
				</g>
			</g>
		</g>
		<g>
			<g>
				<g>
					<circle style="fill-rule:evenodd;clip-rule:evenodd;fill:#FF725E;" cx="320.133" cy="69.455" r="21.48"/>
				</g>
			</g>
			<g style="opacity:0.3;">
				<g>
					<circle style="fill-rule:evenodd;clip-rule:evenodd;fill:#FFFFFF;" cx="320.133" cy="69.455" r="21.48"/>
				</g>
			</g>
		</g>
		<g>
			<g>
				<circle style="fill-rule:evenodd;clip-rule:evenodd;fill:#FF725E;" cx="320.133" cy="69.455" r="17.199"/>
			</g>
		</g>
	</g>
</g>
</svg>
