<?xml version="1.0" encoding="utf-8"?>
<!-- Generator: Adobe Illustrator 27.5.0, SVG Export Plug-In . SVG Version: 6.00 Build 0)  -->
<svg version="1.1" xmlns="http://www.w3.org/2000/svg" xmlns:xlink="http://www.w3.org/1999/xlink" x="0px" y="0px"
	 viewBox="0 0 500 500" style="enable-background:new 0 0 500 500;" xml:space="preserve">
<g id="BACKGROUND">
	<rect style="fill:#CFEDFC;" width="500" height="500"/>
</g>
<g id="OBJECTS">
	<g>
		<g>
			<g>
				<polygon style="fill:#00BEF2;" points="425.626,230.312 385.045,245.631 385.045,282.072 425.626,282.072 				"/>
				<g>
					<rect x="203.631" y="165.284" style="fill:#00BEF2;" width="30.538" height="106.882"/>
					<rect x="206.695" y="159.31" style="fill:#00BEF2;" width="5.974" height="5.975"/>
					<polygon style="fill:#00BEF2;" points="210.32,151.073 209.045,153.335 209.045,159.31 210.32,159.31 					"/>
				</g>
				<g>
					<rect x="410.357" y="190.066" style="fill:#00BEF2;" width="30.538" height="92.006"/>
					<rect x="413.421" y="184.091" style="fill:#00BEF2;" width="5.974" height="5.975"/>
					<polygon style="fill:#00BEF2;" points="417.046,175.855 415.771,178.117 415.771,184.091 417.046,184.091 					"/>
				</g>
				<g>
					<polygon style="fill:#00BEF2;" points="128.45,267.519 101.014,267.519 101.014,187.324 128.45,197.639 					"/>
				</g>
				<g>
					<rect x="237.499" y="185.708" style="fill:#00BEF2;" width="30.3" height="81.811"/>
					<rect x="241.703" y="172.955" style="fill:#00BEF2;" width="21.893" height="65.868"/>
					<rect x="246.639" y="157.236" style="fill:#00BEF2;" width="12.022" height="65.868"/>
					<g>
						<polygon style="fill:#00BEF2;" points="291.048,267.519 267.8,267.519 267.8,199.565 291.048,208.305 						"/>
					</g>
				</g>
				<g>
					<rect x="176.194" y="206.292" style="fill:#00BEF2;" width="27.436" height="65.875"/>
				</g>
				<g>
					<rect x="312.634" y="163.394" style="fill:#00BEF2;" width="30.3" height="104.125"/>
					<rect x="316.837" y="150.641" style="fill:#00BEF2;" width="21.893" height="88.182"/>
					<rect x="321.773" y="134.923" style="fill:#00BEF2;" width="12.022" height="88.181"/>
					<g>
						<rect x="324.797" y="128.948" style="fill:#00BEF2;" width="5.974" height="5.975"/>
						<polygon style="fill:#00BEF2;" points="328.421,120.711 327.146,122.974 327.146,128.948 328.421,128.948 						"/>
					</g>
				</g>
			</g>
			<g>
				<polygon style="fill:#9DDCF9;" points="263.849,338.726 210.411,338.726 210.411,235.363 263.849,216.831 				"/>
				<rect x="436.848" y="269.431" style="fill:#9DDCF9;" width="28.185" height="68.666"/>
				<g>
					<polygon style="fill:#9DDCF9;" points="133.599,338.726 95.865,338.726 95.865,194.785 133.599,208.971 					"/>
				</g>
				<rect x="316.733" y="243.994" style="fill:#9DDCF9;" width="22.102" height="94.103"/>
				<g>
					<g>
						<rect x="263.596" y="191.932" style="fill:#6ACEF6;" width="53.137" height="146.165"/>
						<rect x="270.968" y="174.394" style="fill:#6ACEF6;" width="38.393" height="90.59"/>
						<rect x="279.624" y="152.775" style="fill:#6ACEF6;" width="21.082" height="90.59"/>
					</g>
					<g>
						<rect x="53.865" y="158.081" style="fill:#6ACEF6;" width="42" height="180.645"/>
						<rect x="58.079" y="149.864" style="fill:#6ACEF6;" width="8.217" height="8.217"/>
						<polygon style="fill:#6ACEF6;" points="63.064,138.536 61.311,141.647 61.311,149.864 63.064,149.864 						"/>
					</g>
					<g>
						<rect x="168.411" y="178.54" style="fill:#6ACEF6;" width="42" height="160.186"/>
						<rect x="172.626" y="170.323" style="fill:#6ACEF6;" width="8.217" height="8.217"/>
						<polygon style="fill:#6ACEF6;" points="177.611,158.995 175.857,162.107 175.857,170.323 177.611,170.323 						"/>
					</g>
					<g>
						<rect x="395.879" y="229.011" style="fill:#6ACEF6;" width="42" height="109.715"/>
						<rect x="424.905" y="220.794" style="fill:#6ACEF6;" width="8.217" height="8.217"/>
						<polygon style="fill:#6ACEF6;" points="429.891,209.466 428.137,212.577 428.137,220.794 429.891,220.794 						"/>
					</g>
					<g>
						<rect x="354.24" y="161.244" style="fill:#6ACEF6;" width="41.673" height="176.853"/>
						<rect x="360.021" y="143.705" style="fill:#6ACEF6;" width="30.11" height="121.278"/>
						<rect x="366.809" y="122.087" style="fill:#6ACEF6;" width="16.534" height="121.278"/>
						<g>
							<rect x="370.968" y="113.87" style="fill:#6ACEF6;" width="8.217" height="8.217"/>
							<polygon style="fill:#6ACEF6;" points="375.953,102.542 374.199,105.653 374.199,113.87 375.953,113.87 							"/>
						</g>
					</g>
					<rect x="133.2" y="266.756" style="fill:#6ACEF6;" width="35.211" height="71.971"/>
					<rect x="338.835" y="219.689" style="fill:#6ACEF6;" width="16.067" height="118.408"/>
				</g>
			</g>
		</g>
		<ellipse style="fill:#9DDCF9;" cx="338.606" cy="402.918" rx="133" ry="9.969"/>
		<ellipse style="fill:#9DDCF9;" cx="131.702" cy="402.918" rx="108.658" ry="9.969"/>
		<g>
			<path style="fill:#282844;" d="M167.743,399.723H43.424c-4.509,0-8.165-3.656-8.165-8.165V159.055
				c0-4.51,3.656-8.165,8.165-8.165h124.319c4.51,0,8.165,3.656,8.165,8.165v232.503
				C175.908,396.067,172.253,399.723,167.743,399.723z"/>
			<path style="fill:#0F1B31;" d="M110.953,160.575c0,1.483-1.202,2.685-2.685,2.685c-1.483,0-2.685-1.202-2.685-2.685
				c0-1.483,1.202-2.685,2.685-2.685C109.751,157.89,110.953,159.092,110.953,160.575z"/>
			<g>
				<defs>
					<path id="SVGID_1_" d="M162.776,158.606h-25.991v5.184c0,2.212-1.793,4.005-4.005,4.005H83.758
						c-2.212,0-4.005-1.793-4.005-4.005v-5.184H48.391c-2.1,0-3.803,1.703-3.803,3.803v225.794c0,2.1,1.703,3.803,3.803,3.803
						h114.384c2.1,0,3.803-1.703,3.803-3.803V162.409C166.579,160.309,164.876,158.606,162.776,158.606z"/>
				</defs>
				<clipPath id="SVGID_00000061432010930198240920000001480753137959700156_">
					<use xlink:href="#SVGID_1_"  style="overflow:visible;"/>
				</clipPath>
				<path style="clip-path:url(#SVGID_00000061432010930198240920000001480753137959700156_);fill:#EFF9FE;" d="M162.776,158.606
					h-25.991v5.184c0,2.212-1.793,4.005-4.005,4.005H83.758c-2.212,0-4.005-1.793-4.005-4.005v-5.184H48.391
					c-2.1,0-3.803,1.703-3.803,3.803v225.794c0,2.1,1.703,3.803,3.803,3.803h114.384c2.1,0,3.803-1.703,3.803-3.803V162.409
					C166.579,160.309,164.876,158.606,162.776,158.606z"/>
				<path style="clip-path:url(#SVGID_00000061432010930198240920000001480753137959700156_);fill:#EE365A;" d="M97.254,254.906
					c-10.863-0.109-16.989,12.522-10.462,21.207l9.332,12.417c0.531,0.706,1.591,0.702,2.117-0.008l9.406-12.702
					C114.028,267.2,107.924,255.012,97.254,254.906z M98.078,273.064c-3.846,0.645-7.137-2.624-6.52-6.474
					c0.374-2.332,2.247-4.218,4.576-4.609c3.847-0.645,7.139,2.624,6.521,6.475C102.28,270.788,100.407,272.674,98.078,273.064z"/>
				<g style="clip-path:url(#SVGID_00000061432010930198240920000001480753137959700156_);">
					<path style="fill:none;stroke:#ABE1FA;stroke-width:7.0031;stroke-miterlimit:10;" d="M23.714,194.641
						c0,0,53.738,105.922,61.214,107.309c23.474,4.355,105.109,11.911,105.109,11.911"/>
					<path style="fill:none;stroke:#ABE1FA;stroke-width:7.0031;stroke-miterlimit:10;" d="M121.67,306.866
						c0,0-3.998,40.091-3.415,41.842c0.584,1.751,30.347,8.083,32.681,11.92c2.334,3.837,0,39.095,0,39.095"/>
					
						<line style="fill:none;stroke:#ABE1FA;stroke-width:7.0031;stroke-miterlimit:10;" x1="101.825" y1="304.469" x2="119.308" y2="332.035"/>
					<path style="fill:none;stroke:#ABE1FA;stroke-width:7.0031;stroke-miterlimit:10;" d="M73.089,286.05
						c0,0-14.943,40.929-14.943,45.957c0,5.029,2.334,67.715,2.334,67.715"/>
					<path style="fill:none;stroke:#ABE1FA;stroke-width:7.0031;stroke-miterlimit:10;" d="M131.728,307.986
						c0,0,17.782-39.616,20.246-45.258c2.464-5.643,3.048-111.838,3.048-111.838"/>
					<path style="fill:none;stroke:#ABE1FA;stroke-width:7.0031;stroke-miterlimit:10;" d="M154.471,201.644
						c0,0-64.822,18.091-70.36,20.425s-25.965,37.879-25.965,37.879"/>
					
						<line style="fill:none;stroke:#ABE1FA;stroke-width:7.0031;stroke-miterlimit:10;" x1="94.557" y1="218.749" x2="58.146" y2="146.786"/>
					
						<line style="fill:none;stroke:#ABE1FA;stroke-width:7.0031;stroke-miterlimit:10;" x1="76.351" y1="182.768" x2="154.471" y2="178.3"/>
					
						<line style="fill:none;stroke:#ABE1FA;stroke-width:7.0031;stroke-miterlimit:10;" x1="118.197" y1="180.534" x2="127.822" y2="209.147"/>
				</g>
				<g style="clip-path:url(#SVGID_00000061432010930198240920000001480753137959700156_);">
					<g>
						<path style="fill:#EE365A;" d="M140.652,247.163H99.358c-1.33,0-2.407-1.078-2.407-2.407v-8.024
							c0-1.329,1.078-2.407,2.407-2.407h41.295c1.329,0,2.407,1.078,2.407,2.407v8.024
							C143.059,246.085,141.982,247.163,140.652,247.163z"/>
						<polygon style="fill:#EE365A;" points="102.531,254.13 102.531,247.163 108.221,247.163 						"/>
					</g>
					<g>
						<polygon style="fill:#FFC359;" points="104.767,237.362 105.587,239.886 108.241,239.886 106.094,241.446 106.914,243.97 
							104.767,242.41 102.62,243.97 103.44,241.446 101.293,239.886 103.947,239.886 						"/>
						<polygon style="fill:#FFC359;" points="112.476,237.362 113.296,239.886 115.95,239.886 113.803,241.446 114.623,243.97 
							112.476,242.41 110.329,243.97 111.149,241.446 109.002,239.886 111.656,239.886 						"/>
						<polygon style="fill:#FFC359;" points="120.185,237.362 121.006,239.886 123.659,239.886 121.512,241.446 122.333,243.97 
							120.185,242.41 118.038,243.97 118.859,241.446 116.711,239.886 119.365,239.886 						"/>
						<polygon style="fill:#FFC359;" points="127.895,237.362 128.715,239.886 131.369,239.886 129.222,241.446 130.042,243.97 
							127.895,242.41 125.748,243.97 126.568,241.446 124.421,239.886 127.075,239.886 						"/>
						<polygon style="fill:#FFC359;" points="135.604,237.362 136.424,239.886 139.078,239.886 136.931,241.446 137.751,243.97 
							135.604,242.41 133.457,243.97 134.277,241.446 132.13,239.886 134.784,239.886 						"/>
					</g>
				</g>
			</g>
		</g>
		<g>
			<ellipse style="fill:#14112C;" cx="265.862" cy="369.251" rx="31.406" ry="32.696"/>
			<ellipse style="fill:#14112C;" cx="414.597" cy="369.251" rx="31.406" ry="32.696"/>
			<path style="fill:#282844;" d="M473.229,357.706v15.026c0,0.808-0.328,1.542-0.859,2.073c-0.531,0.527-1.261,0.855-2.069,0.855
				H216.683c-1.617,0-2.929-1.308-2.929-2.929v-15.026c0-1.616,1.312-2.928,2.929-2.928H470.3
				C471.917,354.777,473.229,356.089,473.229,357.706z"/>
			<path style="fill:#FFC359;" d="M467.465,354.777H223.528l7.708-33.124c1.304-6.615,7.107-11.382,13.85-11.382h204.605
				c7.263,0,13.339,5.506,14.053,12.73L467.465,354.777z"/>
			<path style="fill:#FFC359;" d="M278.202,321.978h178.983l-4.441-40.839c-1.46-13.428-12.799-23.602-26.307-23.602H311.815
				c-6.268,0-11.862,3.934-13.983,9.832L278.202,321.978z"/>
			<g>
				<path style="fill:#282844;" d="M443.061,310.267h-58.91c-1.61,0-2.92-1.3-2.92-2.91v-38.84h46.79c5.52,0,10.18,4.09,10.88,9.56
					l1.04,8.03L443.061,310.267z"/>
				<path style="fill:#282844;" d="M308.011,268.517l-11.15,35.34l-0.06,0.2c-1.17,3.7-4.6,6.21-8.49,6.21h-5.9l1.74-4.84
					l13.27-36.91H308.011z"/>
				<path style="fill:#282844;" d="M377.721,268.886v32.98c0,4.84-3.93,8.77-8.77,8.77h-67.28c-1.56,0-2.67-1.52-2.2-3l1.35-4.27
					l10.87-34.48H377.721z"/>
			</g>
			<polygon style="fill:#D77E32;" points="467.465,354.777 223.528,354.777 465.798,340.554 			"/>
			<path style="fill:#FFFFFF;" d="M232.266,334.117c1.29-5.096,2.733-12.69,4.491-14.838c1.757-2.148,3.514-4.881,15.619-4.295
				c12.105,0.586-10.933,16.4-15.033,19.133C233.243,336.85,231.614,336.693,232.266,334.117z"/>
			<path style="fill:#EE365A;" d="M464.865,332.555L464.865,332.555c-3.343,0-6.513-1.485-8.653-4.052l-8.766-10.517
				c-0.566-0.679-0.875-1.534-0.875-2.417l0,0c0-2.085,1.69-3.775,3.775-3.775h5.725c4.178,2.116,7.185,6.259,7.673,11.207
				L464.865,332.555z"/>
			<g>
				<path style="fill:#4F4F7F;" d="M374.482,257.538h-19.88l4.282-16.118c0.488-1.839,2.153-3.118,4.055-3.118h11.543V257.538z"/>
				<path style="fill:#282844;" d="M374.482,257.538h13.94l-4.367-16.437c-0.438-1.65-1.932-2.799-3.639-2.799h-5.934V257.538z"/>
			</g>
			<g>
				<g>
					<rect x="298.61" y="332.555" style="fill:#282844;" width="7.999" height="7.999"/>
					<rect x="306.609" y="340.554" style="fill:#282844;" width="7.999" height="7.999"/>
				</g>
				<g>
					<rect x="314.608" y="332.555" style="fill:#282844;" width="7.999" height="7.999"/>
					<rect x="322.608" y="340.554" style="fill:#282844;" width="7.999" height="7.999"/>
				</g>
				<g>
					<rect x="330.607" y="332.555" style="fill:#282844;" width="7.999" height="7.999"/>
					<rect x="338.606" y="340.554" style="fill:#282844;" width="7.999" height="7.999"/>
				</g>
				<g>
					<rect x="346.605" y="332.555" style="fill:#282844;" width="7.999" height="7.999"/>
					<rect x="354.605" y="340.554" style="fill:#282844;" width="7.999" height="7.999"/>
				</g>
				<g>
					<rect x="362.604" y="332.555" style="fill:#282844;" width="7.999" height="7.999"/>
					<rect x="370.603" y="340.554" style="fill:#282844;" width="7.999" height="7.999"/>
				</g>
				<g>
					<rect x="378.603" y="332.555" style="fill:#282844;" width="7.999" height="7.999"/>
					<rect x="386.602" y="340.554" style="fill:#282844;" width="7.999" height="7.999"/>
				</g>
				<g>
					<rect x="394.601" y="332.555" style="fill:#282844;" width="7.999" height="7.999"/>
					<rect x="402.601" y="340.554" style="fill:#282844;" width="7.999" height="7.999"/>
				</g>
				<g>
					<rect x="410.6" y="332.555" style="fill:#282844;" width="7.999" height="7.999"/>
				</g>
			</g>
			<path style="opacity:0.6;fill:#282844;" d="M315.565,373.25c0,0.812-0.027,1.613-0.082,2.409h-62.648
				c-0.055-0.797-0.082-1.597-0.082-2.409c0-6.853,2.027-13.218,5.494-18.473c5.654-8.59,15.15-14.221,25.912-14.221
				s20.258,5.631,25.912,14.221C313.538,360.033,315.565,366.398,315.565,373.25z"/>
			<path style="opacity:0.6;fill:#282844;" d="M467.848,373.25c0,0.812-0.027,1.613-0.082,2.409h-62.648
				c-0.055-0.797-0.082-1.597-0.082-2.409c0-6.853,2.027-13.218,5.494-18.473c5.654-8.59,15.151-14.221,25.912-14.221
				c10.761,0,20.258,5.631,25.912,14.221C465.821,360.033,467.848,366.398,467.848,373.25z"/>
			<g>
				<ellipse style="fill:#282844;" cx="280.644" cy="373.25" rx="31.406" ry="32.696"/>
				<ellipse style="fill:#D5DBEA;" cx="280.643" cy="373.25" rx="24.091" ry="25.081"/>
				<path style="fill:#B1CFE8;" d="M298.945,356.946c-6.3,6.808-17.131,11.301-29.434,11.301c-4.263,0-8.351-0.541-12.129-1.529
					c2.757-10.685,12.125-18.547,23.261-18.547C287.969,348.171,294.532,351.573,298.945,356.946z"/>
				<ellipse style="fill:#282844;" cx="280.644" cy="373.25" rx="6.759" ry="7.037"/>
			</g>
			<g>
				<ellipse style="fill:#282844;" cx="432.462" cy="373.25" rx="31.406" ry="32.696"/>
				<ellipse style="fill:#D5DBEA;" cx="432.462" cy="373.25" rx="24.091" ry="25.081"/>
				<path style="fill:#B1CFE8;" d="M450.764,356.946c-6.3,6.808-17.131,11.301-29.434,11.301c-4.263,0-8.351-0.541-12.129-1.529
					c2.757-10.685,12.125-18.547,23.261-18.547C439.787,348.171,446.351,351.573,450.764,356.946z"/>
				<ellipse style="fill:#282844;" cx="432.462" cy="373.25" rx="6.759" ry="7.037"/>
			</g>
			<path style="opacity:0.6;fill:#282844;" d="M284.151,305.427l12.71-1.57l-0.06,0.2c-1.17,3.7-4.6,6.21-8.49,6.21h-5.9
				L284.151,305.427z"/>
			<path style="opacity:0.6;fill:#282844;" d="M300.821,303.366l76.9-9.54v8.04c0,4.84-3.93,8.77-8.77,8.77h-67.28
				c-1.56,0-2.67-1.52-2.2-3L300.821,303.366z"/>
			<path style="opacity:0.6;fill:#282844;" d="M443.061,310.267h-58.91c-1.61,0-2.92-1.3-2.92-2.91v-13.97l58.71-7.28
				L443.061,310.267z"/>
			<polygon style="fill:#FFFFFF;" points="320.948,310.636 330.815,310.636 352.311,268.886 342.444,268.886 			"/>
			<polygon style="fill:#FFFFFF;" points="333.948,310.636 336.979,310.636 358.475,268.886 355.444,268.886 			"/>
		</g>
		<g>
			<g>
				<g>
					<g>
						<g>
							<path style="fill:#FBD0AD;" d="M212.652,208.662c0,0,23.807-26,24.432-18.575c0.405,4.811-18.353,24.958-18.353,24.958
								L212.652,208.662z"/>
							<g>
								<path style="fill:#FBD0AD;" d="M232.344,191.378c0,0-0.894-1.743-0.733-3.779c0.225-2.839-1.027-4.406-0.461-4.994
									c0.741-0.771,1.733,0.541,1.973,0.756c0.436,0.389,0.916,2.218,1.306,2.907c0.251,0.442,1.963,1.53,1.71,3.631
									C235.888,192,232.344,191.378,232.344,191.378z"/>
								<path style="fill:#FBD0AD;" d="M233.972,186.727c0,0,3.32-4.208,4.267-5.451c0.948-1.243,1.693-1.708,2.317-1.096
									c0.992,0.972-6.517,9.425-6.517,9.425L233.972,186.727z"/>
								<path style="fill:#FBD0AD;" d="M237.41,186.467c0,0,2.484-3.237,3.431-4.48c0.947-1.243,1.693-1.708,2.317-1.096
									c0.992,0.972-5.681,8.453-5.681,8.453L237.41,186.467z"/>
								<path style="fill:#FBD0AD;" d="M238.179,189.439c0,0,2.484-3.237,3.431-4.48c0.947-1.243,1.693-1.708,2.317-1.096
									c0.992,0.973-5.681,8.453-5.681,8.453L238.179,189.439z"/>
								<path style="fill:#FBD0AD;" d="M235.262,192.009c0,0,5.386-2.428,6.486-3.302c1.101-0.874,2.171-1.223,2.262-0.443
									c0.33,2.82-9.326,6.269-9.326,6.269L235.262,192.009z"/>
								<polygon style="fill:#FBD0AD;" points="236.98,184.068 240.685,188.092 238.886,191.58 234.456,193.182 233.943,189.468 
																	"/>
							</g>
						</g>
						<path style="fill:#FBD0AD;" d="M200.575,212.356c0,0,10.898-3.168,13.949-4.481c3.051-1.313,7.841,5.061,3.019,8.281
							c-4.823,3.221-14.865,5.584-14.865,5.584L200.575,212.356z"/>
						<path style="fill:#0064BD;" d="M228.291,193.014c0,0,0.897-1.236,1.382-1.299c0.485-0.063,5.654,2.813,5.645,3.366
							c-0.01,0.554-1.331,1.686-1.331,1.686L228.291,193.014z"/>
						<path style="fill:#1D3D70;" d="M211.918,208.203c0,0,15.547-14.785,16.064-15.184c0.517-0.398,5.957,3.115,6.289,3.754
							c0.332,0.639-13.736,19.262-14.685,20.114c-6.464,5.803-8.821-3.353-8.821-3.353L211.918,208.203z"/>
						<path style="fill:#1D3D70;" d="M192.765,211.854c0,0,17.958-4.368,21.271-4.693l3.555,11.027l-28.729,9.321L192.765,211.854z"
							/>
					</g>
					<polygon style="fill:#112E5A;" points="192.949,218.725 207.16,221.571 192.949,226.182 					"/>
					<g>
						<path style="fill:#AFB1B4;" d="M155.251,402.06c-0.445,1.095-0.545,1.659-1.39,1.598c-0.845-0.061-6.001-1.868-12.339-5.561
							c-6.338-3.693-8.806-5.739-8.806-5.739l0.693-1.432L155.251,402.06z"/>
						<path style="fill:#0064A2;" d="M145.289,387.24c0.078,0.043,0.144,0.097,0.201,0.166c1.002,1.208,10.676,12.943,9.761,14.655
							c-1.016,1.901-16.823-7.313-21.842-11.134l3.998-7.237c0.192-0.348,0.629-0.473,0.977-0.281L145.289,387.24z"/>
						<path style="fill:#004371;" d="M141.12,395.946c-3.138-1.861-6.031-3.738-7.71-5.021l2.333-4.218
							C137.146,387.356,143.583,390.655,141.12,395.946z"/>
						<g>
							<g>
								<g>
									
										<line style="fill:none;stroke:#FFFFFF;stroke-width:0.8899;stroke-linecap:round;stroke-miterlimit:10;" x1="148.528" y1="390.279" x2="145.627" y2="390.799"/>
								</g>
								<g>
									
										<line style="fill:none;stroke:#FFFFFF;stroke-width:0.8899;stroke-linecap:round;stroke-miterlimit:10;" x1="149.957" y1="392.232" x2="147.056" y2="392.753"/>
								</g>
								<g>
									
										<line style="fill:none;stroke:#FFFFFF;stroke-width:0.8899;stroke-linecap:round;stroke-miterlimit:10;" x1="151.387" y1="394.186" x2="148.486" y2="394.707"/>
								</g>
							</g>
						</g>
					</g>
					<g>
						<path style="fill:#AFB1B4;" d="M207.693,399.772c0.141,1.174,0.327,1.715-0.442,2.071c-0.769,0.356-6.155,1.271-13.489,1.109
							c-7.334-0.163-10.484-0.757-10.484-0.757l-0.087-1.589L207.693,399.772z"/>
						<path style="fill:#0064A2;" d="M191.801,391.628c0.089,0,0.173,0.015,0.256,0.047c1.461,0.572,15.608,6.156,15.636,8.097
							c0.031,2.155-18.26,1.747-24.502,0.834l-0.006-8.268c0-0.397,0.322-0.719,0.718-0.718L191.801,391.628z"/>
						<path style="fill:#004371;" d="M192.369,401.263c-3.647-0.108-7.087-0.351-9.177-0.66l-0.001-4.82
							C184.732,395.672,191.962,395.441,192.369,401.263z"/>
						<g>
							
								<line style="fill:none;stroke:#FFFFFF;stroke-width:0.8899;stroke-linecap:round;stroke-miterlimit:10;" x1="196.107" y1="392.717" x2="193.821" y2="394.578"/>
							
								<line style="fill:none;stroke:#FFFFFF;stroke-width:0.8899;stroke-linecap:round;stroke-miterlimit:10;" x1="198.303" y1="393.735" x2="196.017" y2="395.595"/>
							
								<line style="fill:none;stroke:#FFFFFF;stroke-width:0.8899;stroke-linecap:round;stroke-miterlimit:10;" x1="200.5" y1="394.753" x2="198.213" y2="396.613"/>
						</g>
					</g>
					<path style="fill:#FBD0AD;" d="M193.597,269.647c0,0,3.016,62.214-6.129,61.777c-15.013-0.718-14.685-63.083-14.685-63.083
						L193.597,269.647z"/>
					<path style="fill:#FBD0AD;" d="M180.085,269.881c0,0,1.48,62.287-7.65,61.554c-14.989-1.204-13.143-51.127-13.143-51.127
						L180.085,269.881z"/>
					<path style="fill:#FBD0AD;" d="M193.26,314.096c0,0,0.211,21.268-0.696,27.065c-0.907,5.797-1.434,50.59-1.434,50.59
						c-0.523,0.331-1.665,0.955-3.25,1.054c-1.666,0.104-2.928-0.427-3.484-0.703c-2.467-12.566-2.253-22.844-3.455-29.687
						c-2.284-12.999-0.66-22.133-0.769-26.349c-0.109-4.216-2.115-17.24-2.115-17.24L193.26,314.096z"/>
					<path style="fill:#FBD0AD;" d="M182.148,320.279c0,0-9.769,18.893-13.284,23.591c-3.515,4.698-24.948,44.034-24.948,44.034
						c-0.617,0.048-1.918,0.065-3.365-0.59c-1.521-0.688-2.387-1.748-2.75-2.252c3.702-12.259,8.702-21.242,10.843-27.851
						c4.067-12.556,9.777-19.867,11.654-23.644c1.877-3.776,6.175-17.992,6.175-17.992L182.148,320.279z"/>
					<path style="fill:#007DFC;" d="M195.054,283.427c0,0,1.29,2.342,1.582,12.882c0.292,10.54,0,40.051,0,40.051
						s-28.438,8.432-40.656,1.405c0,0-3.174-48.867,3.312-57.457C165.777,271.717,195.054,283.427,195.054,283.427z"/>
					<path style="fill:#0064BD;" d="M155.661,297.352c21.051,3.759,36.622-7.785,40.191-10.743c0.513-0.421,0.78-0.667,0.78-0.667
						l-0.942-0.267l-29.975-8.368c-2.796,0.33-5.087,1.237-6.422,3C157.277,282.983,156.188,289.559,155.661,297.352z"/>
					<path style="fill:#1D3D70;" d="M194.202,265.425c1.824,7.065,2.433,20.515,2.433,20.515c-1.659,1.653-10.765,3.65-20.74,3.65
						c-6.962,0-14.348-0.976-19.917-3.716c0,0,2.422-12.236,3.413-20.773c2.754-23.714,1.909-39.401,4.033-48.898
						c0,0,2.449-0.471,5.993-0.883c3.929-0.445,8.111,0.017,12.784-1.093c2.647-0.629,7.071-1.992,10.562-2.373
						c0,0,0.001,2.305,2.385,14.953C198.336,243.717,191.381,254.5,194.202,265.425z"/>
					<g>
						<path style="fill:#D12B55;" d="M174.323,210.887c-0.596-3.727-1.888-6.184-0.164-8.31c4.851-5.984,18.79-18.09,18.79-18.09
							s3.961-9.122-2.618-11.243c0,0-7.143-9.499-17.839-7.742c-10.696,1.757-17.02,14.246-18.426,18.804
							c-0.729,2.366-4.198,4.031-7.712,5.882C155.312,208.971,162.165,207.324,174.323,210.887z"/>
						<path style="fill:#FBD0AD;" d="M179.366,213.039c0.085-0.015,0.909,2.887,0.909,2.887c0.09,0.69,1.293,7.166-0.827,7.178
							c-2.166,0.012-6.766-6.852-7.172-7.178c0.159-0.249,0.394-0.629,0.597-1.128c0.307-0.753,0.63-1.884,0.695-3.394
							c0.033-0.761,0.023-1.49-0.021-2.185c-0.18-2.919-0.94-5.226-1.515-6.642h8.273c-0.046,0.169-0.091,0.343-0.135,0.522
							c-0.544,2.177-1.023,5.108-0.89,8.565C179.298,212.135,178.924,213.117,179.366,213.039z"/>
						<path style="fill:#ED8D9B;" d="M179.28,211.663c0.018,0.471,0.047,0.929,0.086,1.376c-2.556-0.859-4.438-2.272-5.818-3.82
							c-0.181-2.919-0.94-5.226-1.515-6.642h7.387c0.215,0.147,0.469,0.323,0.75,0.522
							C179.627,205.275,179.148,208.207,179.28,211.663z"/>
						<g>
							<path style="fill:#FBD0AD;" d="M189.172,188.252c-0.044,2.114-0.393,3.821,1.257,3.856c1.65,0.035,4.674-1.617,4.719-3.731
								c0.044-2.114-1.258-3.856-2.908-3.891C190.59,184.453,189.216,186.138,189.172,188.252z"/>
							<path style="fill:#FBD0AD;" d="M192.76,186.994c-0.233,11.11-8.602,22.086-16.171,21.927
								c-6.253-0.131-15.469-11.477-15.236-22.586c0.233-11.11,7.408-17.828,16.081-17.646
								C186.107,168.871,192.993,175.885,192.76,186.994z"/>
							<path style="fill:#FBD0AD;" d="M163.031,187.704c-0.044,2.114,0.232,3.834-1.418,3.8c-1.65-0.035-4.603-1.811-4.558-3.925
								c0.044-2.114,1.418-3.8,3.069-3.765C161.773,183.848,163.075,185.589,163.031,187.704z"/>
							<g>
								
									<path style="fill:none;stroke:#182227;stroke-width:0.9087;stroke-linecap:round;stroke-linejoin:round;stroke-miterlimit:10;" d="
									M177.697,190.691c0,0-0.462,1.221,0.056,1.948c0,0,2.137-0.522,2.492,0.939c0.355,1.461-0.927,2.809-2.222,2.952"/>
								<path style="fill:#D12B55;" d="M167.887,183.915c0,0,3.048-2.922,5.84,0.123L167.887,183.915z"/>
								<path style="fill:#D12B55;" d="M181.708,184.205c0,0,3.048-2.922,5.84,0.123L181.708,184.205z"/>
								<path style="fill:#182227;" d="M172.735,187.927c0,0.593-0.481,1.074-1.074,1.074c-0.593,0-1.074-0.481-1.074-1.074
									c0-0.593,0.481-1.074,1.074-1.074C172.254,186.853,172.735,187.334,172.735,187.927z"/>
								<path style="fill:#182227;" d="M186.536,187.927c0,0.593-0.481,1.074-1.074,1.074c-0.593,0-1.074-0.481-1.074-1.074
									c0-0.593,0.481-1.074,1.074-1.074C186.056,186.853,186.536,187.334,186.536,187.927z"/>
								<path style="fill:#FFFFFF;" d="M174.323,199.405c0.455,1.751,2.076,3.49,3.684,3.494c2.524,0.008,3.555-3.292,3.684-3.494
									H174.323z"/>
							</g>
							<path style="fill:#D12B55;" d="M160.757,184.487c0,0,0.122,5.246,0.856,7.017c0.734,1.77,2.591,3.538,2.779,2.6
								c0.188-0.938-0.995-5.323-0.962-9.617c0.03-3.753,24.881-8.205,26.1-5.86c1.219,2.345-0.375,13.976,0,14.821
								c0.375,0.844,2.138,0.233,2.6-1.943c0.462-2.177,1.151-7.718,0.636-12.408c-0.515-4.69-6.827-11.913-16.241-11.162
								C167.112,168.684,160.149,172.967,160.757,184.487z"/>
						</g>
					</g>
					<path style="fill:#112E5A;" d="M173.913,289.564c-6.36-0.17-12.89-1.21-17.93-3.69c0,0,2.42-12.24,3.41-20.77
						c1.73-14.93,2.04-26.67,2.56-35.69l4.46-2.8L173.913,289.564z"/>
					<g>
						<path style="fill:#F3704D;" d="M161.805,216.593c0,0-5.826,4.711-11.982,19.336c-5.027,11.941-6.625,16.458-6.625,16.458h4.75
							c0,0,10.185-34.53,18.467-35.557C166.415,216.831,164.237,215.415,161.805,216.593z"/>
						<path style="fill:#F3704D;" d="M179.912,298.346h-35.886c-2.154,0-3.9-1.746-3.9-3.9v-42.059h43.686v42.059
							C183.812,296.6,182.066,298.346,179.912,298.346z"/>
						<path style="fill:#F9A055;" d="M177.162,298.346h-35.886c-2.154,0-3.9-1.746-3.9-3.9v-42.059h43.686v42.059
							C181.062,296.6,179.316,298.346,177.162,298.346z"/>
						<path style="fill:#F9A055;" d="M161.805,216.593c0,0,6.355-3.372,10.228,2.961c3.873,6.333,8.138,32.833,8.138,32.833h-3.113
							c0,0-4.729-27.417-6.815-31.333C168.156,217.137,164.486,216.015,161.805,216.593z"/>
						<g>
							<path style="fill:#4F4F7F;" d="M165.191,280.432l-1.952-6.725c-0.071-0.244,0.07-0.499,0.313-0.57l12.578-3.651
								c0.244-0.071,0.499,0.07,0.57,0.314l1.952,6.726c0.071,0.244-0.07,0.499-0.314,0.57l-12.578,3.651
								C165.517,280.817,165.262,280.676,165.191,280.432z"/>
							<path style="fill:#282844;" d="M165.055,279.967l-1.952-6.726c-0.071-0.244,0.07-0.499,0.313-0.57l12.578-3.651
								c0.244-0.071,0.499,0.07,0.57,0.314l1.952,6.726c0.071,0.244-0.07,0.499-0.314,0.57l-12.578,3.651
								C165.381,280.351,165.126,280.211,165.055,279.967z"/>
						</g>
						<g>
							<path style="fill:#FBD0AD;" d="M150.793,233.939c0,0-7.667,10.863-5.295,14.201c1.596,2.246,5.305,4.318,13.919-8.337
								L150.793,233.939z"/>
							<path style="fill:#FBD0AD;" d="M146.226,248.887c0,0,13.607,27.413,18.374,25.133c4.355-2.083-9.483-29.82-9.483-29.82
								L146.226,248.887z"/>
							<g>
								<path style="fill:#FBD0AD;" d="M165.773,269.052c0,0,3.565,0.326,4.409,0.388c0.844,0.062,1.563,0.92,0.171,1.372
									c-1.393,0.452-3.607,1.34-3.607,1.34L165.773,269.052z"/>
								<g>
									<path style="fill:#FBD0AD;" d="M164.339,266.579c0,0,4.748,7.177,6.303,8.242c1.555,1.065,2.885,1.089,3.748,1.93
										c0.863,0.841-0.47,1.67-1.688,1.348c-1.218-0.323-4.007-1.398-6.118-3.885c-2.111-2.487-2.958-3.962-2.958-3.962
										L164.339,266.579z"/>
									<path style="fill:#FBD0AD;" d="M163.742,268.42c0,0,4.351,7.181,5.973,8.417c1.622,1.236,3.059,1.334,3.946,2.29
										c0.887,0.956-0.599,1.78-1.898,1.365c-1.299-0.415-4.255-1.729-6.401-4.533c-2.146-2.803-2.981-4.444-2.981-4.444
										L163.742,268.42z"/>
									<path style="fill:#FBD0AD;" d="M162.165,269.743c0,0,3.676,6.949,5.125,8.192c1.449,1.243,2.786,1.414,3.563,2.355
										c0.777,0.942-0.656,1.631-1.848,1.172c-1.192-0.459-3.883-1.848-5.736-4.585c-1.853-2.737-2.544-4.315-2.544-4.315
										L162.165,269.743z"/>
									<path style="fill:#FBD0AD;" d="M161.948,269.295c0,0,1.96,6.832,3.012,8.201c1.051,1.369,2.203,1.769,2.715,2.746
										c0.512,0.977-0.884,1.321-1.853,0.693c-0.969-0.628-3.092-2.357-4.223-5.123s-1.449-4.292-1.449-4.292L161.948,269.295z"/>
								</g>
							</g>
							<path style="fill:#1D3D70;" d="M169.214,220.9c-0.457-3.52-4.141-5.692-7.409-4.307c-2.422,1.026-4.945,2.461-6.481,4.368
								c-4.47,5.548-11.376,22.712-11.376,22.712l12.611,2.189l11.743-19.512C169.139,224.663,169.456,222.766,169.214,220.9
								L169.214,220.9z"/>
							<path style="fill:#1D3D70;" d="M143.948,243.672c0,0-0.25,1.548,0.237,2.948c0.4,1.15,9.684,17.522,11.327,19.761
								c1.644,2.239,2.044,2.266,2.044,2.266l6.929-3.454c0,0-9.932-25.428-10.326-26.452
								C153.767,237.718,143.948,243.672,143.948,243.672z"/>
							<path style="fill:#0064BD;" d="M157.557,268.647c0,0,0.702,1.321,1.088,1.875c0.385,0.554,6.493-2.97,6.785-3.299
								c0.292-0.329-0.944-2.03-0.944-2.03L157.557,268.647z"/>
						</g>
					</g>
				</g>
			</g>
		</g>
		
			<ellipse transform="matrix(0.7071 -0.7071 0.7071 0.7071 -17.468 111.0735)" style="fill:#FFFFFF;" cx="125.344" cy="76.622" rx="36.756" ry="36.756"/>
		<path style="fill:#FFFFFF;" d="M0,500v-82.446c0,0,29.817-1,44.589,30s46.515,32,70.143,19s68.802-16.108,70.715,33.446H0z"/>
		<path style="fill:#FFFFFF;" d="M257.382,0c0,0,11.101,49.554,71.04,49.554s100.224-16.374,117.581-9.687
			C463.36,46.554,450.64,93.554,500,98.554V0H257.382z"/>
		<path style="fill:#FFFFFF;" d="M419.396,51.221c9.4-3.453,15.489,3,13.726,7C431.36,62.221,399.432,58.554,419.396,51.221z"/>
		<path style="fill:#FFFFFF;" d="M250,37.554c7.212,1.137,3.139,14.5-12.501,8.5C221.86,40.054,234.14,35.054,250,37.554z"/>
		<path style="fill:#FFFFFF;" d="M197.36,478.887c4.374-9.146,22.455,1.667,16.394,7.667
			C207.693,492.554,193.693,486.554,197.36,478.887z"/>
		<path style="fill:#FFFFFF;" d="M77.36,464.804c-7.198,0,0-6.557,4.25-6.029C85.86,459.304,90.86,464.804,77.36,464.804z"/>
	</g>
</g>
</svg>
